<?xml version="1.0" encoding="UTF-8" standalone="no"?>
<!-- Created with Inkscape (http://www.inkscape.org/) -->

<svg
   version="1.1"
   id="svg1"
   width="736.13745"
   height="1991.5665"
   viewBox="0 0 736.13745 1991.5666"
   xmlns="http://www.w3.org/2000/svg"
   xmlns:svg="http://www.w3.org/2000/svg">
  <defs
     id="defs1" />
  <g
     id="g1"
     transform="translate(-764.03319,-364.8666)">
    <g
       id="group-R5"
       transform="rotate(-90,1132.1019,413.3487)">
      <g
         id="g7">
        <g
           id="g2"
           transform="matrix(0.99939043,0,0,1.0012051,1.504427,-0.94169657)">
          <rect
             style="fill:#000000;stroke-width:1.65231"
             id="rect1"
             width="735.25128"
             height="1954.0002"
             x="46.166054"
             y="-1141.0176"
             transform="rotate(90)" />
        </g>
        <path
           id="path3567"
           d="m 1117.1338,99.874711 c 0.2032,-0.272328 0.1876,0.458469 0.3604,0.315209 -0.04,2.00614 0.1933,3.13812 -0.1437,3.9406 l -0.038,-0.48727 -0.1083,0.15766 c 0.01,-2.06342 -0.2333,-2.59357 -0.071,-3.926199"
           style="fill:#000000;fill-opacity:1;fill-rule:nonzero;stroke:none;stroke-width:0.138223" />
        <path
           id="path3568"
           d="m 1120.6671,155.57271 c -0.1948,-1.66212 0.2543,-1.21795 0,0 v 0"
           style="fill:#000000;fill-opacity:1;fill-rule:nonzero;stroke:none;stroke-width:0.138223" />
        <path
           id="path3569"
           d="m 1121.6073,203.40403 c 0.098,0.42988 0.1104,1.61925 -0.074,1.64784 0.042,-0.47287 -0.083,-1.69083 0.074,-1.64784"
           style="fill:#000000;fill-opacity:1;fill-rule:nonzero;stroke:none;stroke-width:0.138223" />
        <path
           id="path3570"
           d="m 1121.8953,201.77049 c 0.2406,-0.14326 0.3718,1.92016 0.1437,1.96315 0.035,-1.03171 -0.1015,-1.27535 -0.1437,-1.96315"
           style="fill:#000000;fill-opacity:1;fill-rule:nonzero;stroke:none;stroke-width:0.138223" />
        <path
           id="path3571"
           d="m 1121.9666,208.00374 c -0.052,-0.73079 0.2667,-1.34692 0.2896,-0.65911 -0.1437,0 -0.092,0.90275 -0.2896,0.65911"
           style="fill:#000000;fill-opacity:1;fill-rule:nonzero;stroke:none;stroke-width:0.138223" />
        <path
           id="path3572"
           d="m 1121.9666,228.63797 c -0.059,-0.91704 0.1011,-0.84547 0.072,-1.63355 0.2475,-0.37259 0.2131,2.37864 -0.072,1.63355"
           style="fill:#000000;fill-opacity:1;fill-rule:nonzero;stroke:none;stroke-width:0.138223" />
        <path
           id="path3573"
           d="m 1122.2562,206.35591 c 0.069,-0.60184 -0.2172,-1.0891 0,-1.30404 0.021,0.20064 0.1803,1.26105 0,1.30404"
           style="fill:#000000;fill-opacity:1;fill-rule:nonzero;stroke:none;stroke-width:0.138223" />
        <path
           id="path3574"
           d="m 1122.2562,230.60112 c 0.059,-0.91715 -0.1015,-0.84547 -0.072,-1.63354 0.2183,-0.50156 0.1907,1.70512 0.072,1.63354"
           style="fill:#000000;fill-opacity:1;fill-rule:nonzero;stroke:none;stroke-width:0.138223" />
        <path
           id="path3575"
           d="m 1122.399,180.47715 c -0.1428,-1.96315 -0.1235,-2.70824 0.2176,-3.61099 0.2125,1.4042 0.2943,1.4186 0.2885,3.61099 l -0.1082,-0.17195 -0.1088,0.17195 c -0.097,0 -0.1928,0 -0.2891,0"
           style="fill:#000000;fill-opacity:1;fill-rule:nonzero;stroke:none;stroke-width:0.138223" />
        <path
           id="path3576"
           d="m 1122.399,211.92994 c 0.014,-0.48716 -0.023,-1.20366 0.073,-1.30393 0.031,0.51585 0.2267,0.27222 0.1443,1.30393 -0.071,0 -0.1443,0 -0.2176,0"
           style="fill:#000000;fill-opacity:1;fill-rule:nonzero;stroke:none;stroke-width:0.138223" />
        <path
           id="path3577"
           d="m 1123.5542,221.75989 c -0.038,-1.63354 0.2875,-1.99174 0.3604,-0.65911 -0.1365,0.14326 -0.1292,0.94573 -0.3604,0.65911"
           style="fill:#000000;fill-opacity:1;fill-rule:nonzero;stroke:none;stroke-width:0.138223" />
        <path
           id="path3578"
           d="m 1124.2042,218.49281 c 0.073,0 0.1432,0 0.2156,0 0,-0.34391 -0.058,-0.40119 -0.072,-0.65912 0.2432,0.20054 0.3145,1.18927 0.3615,2.29266 -0.2032,0.67351 -0.4355,-0.7021 -0.5047,-1.63354"
           style="fill:#000000;fill-opacity:1;fill-rule:nonzero;stroke:none;stroke-width:0.138223" />
        <path
           id="path3579"
           d="m 1125.1417,168.35454 c 0.3,-0.68781 0.2692,1.7768 0.1442,1.96305 -0.041,-0.68781 -0.1808,-0.93134 -0.1442,-1.96305"
           style="fill:#000000;fill-opacity:1;fill-rule:nonzero;stroke:none;stroke-width:0.138223" />
        <path
           id="path3580"
           d="m 1125.4302,246.66422 c -0.024,-0.44417 -0.1027,-0.63042 -0.072,-1.30393 0.2068,-0.072 0.3932,-0.043 0.3615,0.97443 -0.137,-0.072 -0.1599,0.37249 -0.2891,0.3295"
           style="fill:#000000;fill-opacity:1;fill-rule:nonzero;stroke:none;stroke-width:0.138223" />
        <path
           id="path3581"
           d="m 1126.0797,227.00442 c 0.022,0.44418 0.1026,0.63053 0.071,1.31834 -0.048,0 -0.096,0 -0.1443,0 0,-0.32961 -0.059,-0.40129 -0.073,-0.65922 0.097,0 0.068,-0.57314 0.1459,-0.65912"
           style="fill:#000000;fill-opacity:1;fill-rule:nonzero;stroke:none;stroke-width:0.138223" />
        <path
           id="path3582"
           d="m 1126.7999,252.89747 c -0.138,0.45858 -0.289,0.85976 -0.5046,0.97443 0.013,-1.80549 -0.2192,-2.4933 -0.1443,-4.58541 l 0.1317,0.15765 0.085,-0.48716 c 0.2834,0.75938 0.3954,2.04902 0.4318,3.94049"
           style="fill:#000000;fill-opacity:1;fill-rule:nonzero;stroke:none;stroke-width:0.138223" />
        <path
           id="path3583"
           d="m 1126.2239,284.35037 c 0,-0.22214 0,-0.43847 0,-0.65771 0.047,0 0.097,0 0.1443,0 0,0.21924 0,0.43557 0,0.65771 -0.047,0 -0.097,0 -0.1443,0"
           style="fill:#000000;fill-opacity:1;fill-rule:nonzero;stroke:none;stroke-width:0.138223" />
        <path
           id="path3584"
           d="m 1126.4406,287.95277 c -0.2271,0.14906 -0.2307,-0.70071 -0.2167,-1.63785 0.2246,-0.15185 0.2298,0.69641 0.2167,1.63785"
           style="fill:#000000;fill-opacity:1;fill-rule:nonzero;stroke:none;stroke-width:0.138223" />
        <path
           id="path3585"
           d="m 1127.8094,744.72714 c 0.046,0.0172 0.086,0.0473 0.073,0.32814 -0.152,0.0946 0.1079,0.88412 -0.1437,0.98585 0.01,-0.57174 -0.017,-1.02311 -0.073,-1.31399 0.049,0 0.097,0 0.1433,0"
           style="fill:#000000;fill-opacity:1;fill-rule:nonzero;stroke:none;stroke-width:0.138223" />
        <path
           id="path3586"
           d="m 1128.0979,733.58179 c 0.2124,-0.0831 0.2771,1.27817 0.072,1.31686 -0.021,-0.44278 -0.1,-0.62763 -0.072,-1.31686"
           style="fill:#000000;fill-opacity:1;fill-rule:nonzero;stroke:none;stroke-width:0.138223" />
        <path
           id="path3587"
           d="m 1128.4594,715.23882 c -0.2177,-1.10766 0.2672,-0.99445 0,0 v 0"
           style="fill:#000000;fill-opacity:1;fill-rule:nonzero;stroke:none;stroke-width:0.138223" />
        <path
           id="path3588"
           d="m 1130.9125,262.39782 0.1317,0.15765 0.085,-0.48716 c 0.2041,-0.27233 0.1855,0.45847 0.3599,0.32951 -0.053,-1.4329 0.1458,0.25792 0.1458,-0.65912 0.016,-0.25793 0,-0.64482 0.072,-0.65911 0.073,2.70824 0.2959,2.92318 0.5042,4.91492 -0.015,0.25793 -0.061,0.38689 -0.1454,0.32961 l 0.037,-0.48727 -0.1089,0.15766 c -0.3317,0.68781 -0.055,1.4473 -0.1448,2.29266 -0.4719,-0.78808 -0.5619,-3.33866 -1.0083,-4.25581 -0.031,-0.78808 0.1303,-0.7164 0.071,-1.63354"
           style="fill:#000000;fill-opacity:1;fill-rule:nonzero;stroke:none;stroke-width:0.138223" />
        <path
           id="path3589"
           d="m 1130.9343,261.63843 -0.093,0.42988 c -0.1364,0.029 -0.051,1.0747 -0.2166,0.98873 0.017,-2.1494 -0.3755,-4.49945 0.1426,-5.90376 -10e-4,-0.57313 0.056,-0.84535 0.1454,-0.98872 0.1365,2.04913 -0.087,3.71137 0.1448,5.24453 l -0.123,0.22934"
           style="fill:#000000;fill-opacity:1;fill-rule:nonzero;stroke:none;stroke-width:0.138223" />
        <path
           id="path3590"
           d="m 1130.6958,246.66422 c -0.022,0.75949 0.013,1.26105 0.071,1.63354 -0.4011,0.78819 -0.086,-2.46461 -0.071,-1.63354"
           style="fill:#000000;fill-opacity:1;fill-rule:nonzero;stroke:none;stroke-width:0.138223" />
        <path
           id="path3591"
           d="m 1130.9125,253.8719 c 0.035,-1.03171 -0.2208,-0.74508 -0.1454,-1.96315 0.1543,-0.45847 0.4486,0.63053 0.5047,1.63354 -0.2015,-0.27222 -0.1848,0.47287 -0.3593,0.32961"
           style="fill:#000000;fill-opacity:1;fill-rule:nonzero;stroke:none;stroke-width:0.138223" />
        <path
           id="path3592"
           d="m 1131.7781,477.01954 c 0.022,-0.64331 -0.096,-0.65191 -0.1432,-0.98582 0.2536,-0.28372 0.3802,0.80388 0.1432,0.98582"
           style="fill:#000000;fill-opacity:1;fill-rule:nonzero;stroke:none;stroke-width:0.138223" />
        <path
           id="path3593"
           d="m 1132.5714,458.66798 c 0,0.32821 0.059,0.3927 0.074,0.65492 l -0.1093,0.38399 0.036,0.60044 c -0.1,-0.014 -0.1579,0.15615 -0.2163,0.3281 0,-0.3281 0,-0.65341 0,-0.98302 l -0.034,-0.49286 -0.1095,-0.16336 c -0.012,-0.7108 0.2563,-0.14766 0.36,-0.32821"
           style="fill:#000000;fill-opacity:1;fill-rule:nonzero;stroke:none;stroke-width:0.138223" />
        <path
           id="path3594"
           d="m 1133.0781,551.40163 c -0.1572,0.27232 -0.2474,0.84686 -0.5067,0.65341 0.02,-1.11768 0.1484,-1.73521 0.3609,-1.96304 0,0.65051 0.1963,0.41118 0.1458,1.30963"
           style="fill:#000000;fill-opacity:1;fill-rule:nonzero;stroke:none;stroke-width:0.138223" />
        <path
           id="path3595"
           d="m 1133.2223,518.30669 c -0.044,-0.93283 -0.2686,-1.66363 0.072,-1.96605 -0.043,0.57324 0.087,1.92446 -0.072,1.96605"
           style="fill:#000000;fill-opacity:1;fill-rule:nonzero;stroke:none;stroke-width:0.138223" />
        <path
           id="path3596"
           d="m 1133.2942,454.73748 c 0,0.45138 0.033,0.7179 0.071,0.98303 -0.2251,0.15476 -0.2693,-0.88415 -0.071,-0.98303"
           style="fill:#000000;fill-opacity:1;fill-rule:nonzero;stroke:none;stroke-width:0.138223" />
        <path
           id="path3597"
           d="m 1133.3651,519.28961 c -0.1396,2.20819 -0.2266,-0.98012 0,0 v 0"
           style="fill:#000000;fill-opacity:1;fill-rule:nonzero;stroke:none;stroke-width:0.138223" />
        <path
           id="path3598"
           d="m 1134.0141,336.11939 c 0.2213,-0.23644 0.2125,0.56593 0.4344,0.3295 0.025,0.99162 -0.2355,0.67642 -0.362,0.98163 0.018,-0.61903 -0.081,-0.7237 -0.072,-1.31113"
           style="fill:#000000;fill-opacity:1;fill-rule:nonzero;stroke:none;stroke-width:0.138223" />
        <path
           id="path3599"
           d="m 1134.2327,441.30084 c 0.122,-0.0172 0.183,0.25363 0.2158,0.65772 -0.1251,0.014 -0.1855,-0.25213 -0.2158,-0.65772"
           style="fill:#000000;fill-opacity:1;fill-rule:nonzero;stroke:none;stroke-width:0.138223" />
        <path
           id="path3600"
           d="m 1134.3755,474.72259 c 0.1812,-1.26245 -0.136,-3.64678 0.073,-5.56554 l 0.071,0.16195 0.072,-0.16195 c 0.1948,0.37829 0.1796,0.15626 0.4328,0 l 0.1312,0.16195 0.086,-0.49296 c 0.056,0.0731 0.083,0.27512 0.073,0.65632 -0.2084,1.09479 -0.2458,1.14058 -0.362,2.29265 0.096,0.32531 0.1402,0.88706 0.2891,0.98593 0.01,0.81097 -0.1147,1.01301 -0.1459,1.63924 -0.136,0.072 -0.1582,-0.3726 -0.2874,-0.32961 0,0.56465 -0.055,0.83687 -0.1448,0.98163 v -0.32961 h -0.072 c -0.087,0.0516 -0.1647,0.58603 -0.2167,0"
           style="fill:#000000;fill-opacity:1;fill-rule:nonzero;stroke:none;stroke-width:0.138223" />
        <path
           id="path3601"
           d="m 1134.3755,476.03372 0.073,0.16626 0.071,-0.16626 c 0.093,0.77379 -0.01,0.61183 0.072,1.63784 -0.056,0.0763 -0.1428,0.0129 -0.1437,0.33101 l -0.073,-0.16335 -0.072,-0.16766 c -0.1615,-0.13326 -0.069,-1.79399 0.072,-1.63784"
           style="fill:#000000;fill-opacity:1;fill-rule:nonzero;stroke:none;stroke-width:0.138223" />
        <path
           id="path3602"
           d="m 1134.3031,465.87997 c 0.049,0 0.097,0 0.1454,0 0,0.21494 0,0.43557 0,0.65341 -0.049,0 -0.096,0 -0.1454,0 0,-0.21784 0,-0.43847 0,-0.65341"
           style="fill:#000000;fill-opacity:1;fill-rule:nonzero;stroke:none;stroke-width:0.138223" />
        <path
           id="path3603"
           d="m 1135.2422,508.47384 c -0.1287,0.0806 -0.1652,0.56744 -0.1459,1.30834 -0.2469,-0.29662 -0.3912,-1.06041 -0.4322,-2.28986 0.327,-0.28082 0.4025,0.57314 0.5781,0.98152"
           style="fill:#000000;fill-opacity:1;fill-rule:nonzero;stroke:none;stroke-width:0.138223" />
        <path
           id="path3604"
           d="m 1134.7349,497.00616 c 0.1713,-2.32565 -0.08,-4.53814 0.4344,-5.24314 0.083,1.05611 -0.026,3.71416 -0.073,5.24314 -0.1203,0 -0.2402,0 -0.3615,0"
           style="fill:#000000;fill-opacity:1;fill-rule:nonzero;stroke:none;stroke-width:0.138223" />
        <path
           id="path3605"
           d="m 1134.8807,434.42137 c 0.064,0.3625 0.1604,0.22923 0.2886,0 0,0.32961 0,0.65481 0,0.98303 -0.1256,-0.0258 -0.224,0.0731 -0.2886,0.3252 -0.021,-0.19914 -0.1781,-1.25804 0,-1.30823"
           style="fill:#000000;fill-opacity:1;fill-rule:nonzero;stroke:none;stroke-width:0.138223" />
        <path
           id="path3606"
           d="m 1134.8807,504.21524 c -0.021,0.64052 0.097,0.64761 0.1443,0.98582 -0.198,0.51586 -0.3224,-0.85116 -0.1443,-0.98582"
           style="fill:#000000;fill-opacity:1;fill-rule:nonzero;stroke:none;stroke-width:0.138223" />
        <path
           id="path3607"
           d="m 1135.025,480.29243 c 0.1427,-0.54315 0.092,0.0312 0.2901,0 -0.042,0.47857 0.083,1.69652 -0.073,1.64214 0.076,-1.22236 -0.1541,-1.059 -0.2172,-1.64214"
           style="fill:#000000;fill-opacity:1;fill-rule:nonzero;stroke:none;stroke-width:0.138223" />
        <path
           id="path3608"
           d="m 1135.3151,490.77999 c -0.1969,0.22644 -0.1428,-0.6777 -0.2188,-0.98292 0.188,-0.19495 0.2588,0.13327 0.2188,0.98292"
           style="fill:#000000;fill-opacity:1;fill-rule:nonzero;stroke:none;stroke-width:0.138223" />
        <path
           id="path3609"
           d="m 1135.5291,586.46261 c 0.4432,0.50296 0.4178,3.12953 0.6495,4.58542 l -0.1068,0.37969 0.033,0.60474 c -0.7771,0.98152 -0.7667,-2.21958 -0.576,-5.56985"
           style="fill:#000000;fill-opacity:1;fill-rule:nonzero;stroke:none;stroke-width:0.138223" />
        <path
           id="path3610"
           d="m 1135.6739,580.56187 c -0.3358,-0.58034 0.067,-1.53618 0,0 v 0"
           style="fill:#000000;fill-opacity:1;fill-rule:nonzero;stroke:none;stroke-width:0.138223" />
        <path
           id="path3611"
           d="m 1135.9635,597.27409 c 0.1255,-0.0247 0.2246,0.072 0.2875,0.32671 -0.039,0.47716 0.085,1.69802 -0.072,1.63934 l -0.1068,-0.16196 -0.1083,0.16196 c 0,-0.65771 0,-1.30834 0,-1.96605"
           style="fill:#000000;fill-opacity:1;fill-rule:nonzero;stroke:none;stroke-width:0.138223" />
        <path
           id="path3612"
           d="m 1136.1786,602.84248 c 0,0.22068 0,0.43848 0,0.65629 -0.048,0 -0.094,0 -0.1459,0 0,-0.21781 0,-0.43561 0,-0.65629 0.052,0 0.098,0 0.1459,0"
           style="fill:#000000;fill-opacity:1;fill-rule:nonzero;stroke:none;stroke-width:0.138223" />
        <path
           id="path3613"
           d="m 1136.251,540.58446 c 0.1104,0.50296 0.1276,2.25257 -0.1459,1.96885 0.068,-0.57465 0.028,-1.63494 0.1459,-1.96885"
           style="fill:#000000;fill-opacity:1;fill-rule:nonzero;stroke:none;stroke-width:0.138223" />
        <path
           id="path3614"
           d="m 1136.3953,422.62547 c 0.096,0 0.1917,0 0.2885,0 0.1923,1.27535 -0.01,3.09084 -0.073,4.25871 -0.4583,-0.23213 -0.3577,-2.75553 -0.2156,-4.25871"
           style="fill:#000000;fill-opacity:1;fill-rule:nonzero;stroke:none;stroke-width:0.138223" />
        <path
           id="path3615"
           d="m 1136.6838,605.13948 c -0.1052,-0.2737 -0.3572,-1.72956 -0.073,-0.98443 0.035,-1.61779 0.1303,-3.08942 0.2901,-4.26149 0.1292,1.78539 0.188,3.49344 -0.073,5.57263 l -0.07,-0.1648 -0.074,-0.16191"
           style="fill:#000000;fill-opacity:1;fill-rule:nonzero;stroke:none;stroke-width:0.138223" />
        <path
           id="path3616"
           d="m 1136.901,576.62987 c -0.1005,-0.0161 -0.1593,0.15475 -0.2172,0.331 -0.089,-0.92993 -0.089,-2.02473 0,-2.94897 0.3323,0.16905 0.1115,1.16637 0.2172,2.61797"
           style="fill:#000000;fill-opacity:1;fill-rule:nonzero;stroke:none;stroke-width:0.138223" />
        <path
           id="path3617"
           d="m 1137.1171,321.70122 c -0.1629,0.15906 -0.4333,-0.81967 -0.2161,-1.30834 0.021,0.66632 0.1959,0.64343 0.2161,1.30834"
           style="fill:#000000;fill-opacity:1;fill-rule:nonzero;stroke:none;stroke-width:0.138223" />
        <path
           id="path3618"
           d="m 1136.9729,533.70778 c 0.1401,0.0978 0.1442,-0.44127 0.2152,-0.65772 0,0.65772 0,1.30974 0,1.96885 -0.1896,0.0978 -0.2355,-0.45567 -0.2152,-1.31113"
           style="fill:#000000;fill-opacity:1;fill-rule:nonzero;stroke:none;stroke-width:0.138223" />
        <path
           id="path3619"
           d="m 1137.0458,627.09199 c 0.03,-0.62045 -0.098,-1.97457 0.1423,-1.6407 0.011,0.81677 0.014,1.59342 -0.1423,1.6407"
           style="fill:#000000;fill-opacity:1;fill-rule:nonzero;stroke:none;stroke-width:0.138223" />
        <path
           id="path3620"
           d="m 1137.4766,554.3506 c 0,-0.19914 -0.01,-0.38969 -0.071,-0.33101 -0.031,0.62913 -0.025,1.41001 -0.2176,1.31114 0,-0.99732 0.068,-1.66794 0.2176,-1.96455 -0.01,0.3353 0.3104,0.66352 0.071,0.98442"
           style="fill:#000000;fill-opacity:1;fill-rule:nonzero;stroke:none;stroke-width:0.138223" />
        <path
           id="path3621"
           d="m 1137.3323,476.36183 c 0.261,-0.31091 0.101,1.29254 0.1443,1.96745 -0.3297,-0.1021 -0.1667,-1.39281 -0.1443,-1.96745"
           style="fill:#000000;fill-opacity:1;fill-rule:nonzero;stroke:none;stroke-width:0.138223" />
        <path
           id="path3622"
           d="m 1137.4057,672.30961 c 0.043,-0.0903 0.2781,-0.81535 0.2876,0 -0.1355,-0.31382 -0.2418,0.98155 -0.2876,0"
           style="fill:#000000;fill-opacity:1;fill-rule:nonzero;stroke:none;stroke-width:0.138223" />
        <path
           id="path3623"
           d="m 1137.6218,305.64661 c 0.2235,1.96316 -0.2681,1.60775 0,0 v 0"
           style="fill:#000000;fill-opacity:1;fill-rule:nonzero;stroke:none;stroke-width:0.138223" />
        <path
           id="path3624"
           d="m 1137.7666,309.90532 c 0.2281,-0.55024 0.01,-1.88008 0.1448,-2.29276 0.015,0.25363 0.059,0.38259 0.1443,0.32821 -0.096,1.01592 0.019,0.93714 0,2.29266 -0.1104,-0.0548 -0.2672,0.11897 -0.2891,-0.32811"
           style="fill:#000000;fill-opacity:1;fill-rule:nonzero;stroke:none;stroke-width:0.138223" />
        <path
           id="path3625"
           d="m 1137.9114,531.08412 c 0.2776,-0.28233 0.31,0.54734 0.4319,0.98732 -0.2558,0.17475 -0.3724,-0.28372 -0.4319,-0.98732"
           style="fill:#000000;fill-opacity:1;fill-rule:nonzero;stroke:none;stroke-width:0.138223" />
        <path
           id="path3626"
           d="m 1138.1266,500.28324 c 0.027,-1.33123 -0.3043,-2.74694 -0.071,-3.9305 l 0.084,0.49146 0.1308,-0.16336 c 0.041,0.92134 0.2271,2.8816 0.072,3.6024 -0.029,-0.55745 -0.092,0.0688 -0.2167,0"
           style="fill:#000000;fill-opacity:1;fill-rule:nonzero;stroke:none;stroke-width:0.138223" />
        <path
           id="path3627"
           d="m 1137.9823,553.69288 c 0.1338,-0.80817 0.021,-2.73543 0.2886,-2.94747 0.024,1.0933 0.2109,1.453 0.1452,2.94747 -0.058,0.29232 -0.4427,1.4516 -0.4338,0"
           style="fill:#000000;fill-opacity:1;fill-rule:nonzero;stroke:none;stroke-width:0.138223" />
        <path
           id="path3628"
           d="m 1138.1266,562.2117 h 0.1443 v -0.65481 c 0.2932,0.0957 0.056,2.58927 0.3604,2.62226 -0.186,1.60485 0.1364,2.11931 0,3.6024 l -0.1079,-0.16056 -0.1073,0.16056 c -0.4354,-0.32102 -0.2458,-3.47773 -0.2895,-5.56985"
           style="fill:#000000;fill-opacity:1;fill-rule:nonzero;stroke:none;stroke-width:0.138223" />
        <path
           id="path3629"
           d="m 1138.2709,572.36976 0.1093,0.16196 0.1063,-0.16196 c 0.2005,0.7265 -0.01,2.33425 0,3.27998 l -0.1314,-0.17055 -0.084,0.49726 c -0.3548,-1.23236 0.021,-1.90576 0,-3.60669"
           style="fill:#000000;fill-opacity:1;fill-rule:nonzero;stroke:none;stroke-width:0.138223" />
        <path
           id="path3630"
           d="m 1138.1266,490.12518 c 0.057,0.22644 0.1615,1.82838 0,1.96595 -0.056,-0.22634 -0.1605,-1.82979 0,-1.96595"
           style="fill:#000000;fill-opacity:1;fill-rule:nonzero;stroke:none;stroke-width:0.138223" />
        <path
           id="path3631"
           d="m 1138.1266,628.40313 c 0.1281,-1.28105 -0.079,-1.56047 0.071,-2.95184 0.2244,-0.0301 0.2072,1.03314 0.5068,0.65915 0.012,1.69802 -0.3579,1.6536 -0.5781,2.29269"
           style="fill:#000000;fill-opacity:1;fill-rule:nonzero;stroke:none;stroke-width:0.138223" />
        <path
           id="path3632"
           d="m 1138.1979,632.66323 c 0.01,-0.61186 0.048,-1.09475 0.1454,-1.31256 0.018,0.57891 0.1233,0.74656 0.288,0.65772 -0.01,1.43437 -0.2907,0.69067 -0.4334,0.65484"
           style="fill:#000000;fill-opacity:1;fill-rule:nonzero;stroke:none;stroke-width:0.138223" />
        <path
           id="path3633"
           d="m 1138.4865,589.08058 c -0.039,0.47577 0.085,1.69523 -0.07,1.63784 -0.1156,-0.48856 -0.053,-1.33832 0.07,-1.63784"
           style="fill:#000000;fill-opacity:1;fill-rule:nonzero;stroke:none;stroke-width:0.138223" />
        <path
           id="path3634"
           d="m 1138.8485,540.26205 c 0.035,1.03171 -0.1303,1.15777 -0.072,2.29126 -0.3022,0.0355 -0.055,-2.1867 0.072,-2.29126"
           style="fill:#000000;fill-opacity:1;fill-rule:nonzero;stroke:none;stroke-width:0.138223" />
        <path
           id="path3635"
           d="m 1138.9922,628.72983 c -0.043,-0.67921 -0.1521,-1.0575 -0.2156,-1.63784 0.1405,0.0989 0.1416,-0.44133 0.2156,-0.65055 0.027,0.39979 0.3844,-0.12896 0.3599,1.30397 -0.426,-0.33244 -0.1094,0.67921 -0.3599,0.98442"
           style="fill:#000000;fill-opacity:1;fill-rule:nonzero;stroke:none;stroke-width:0.138223" />
        <path
           id="path3636"
           d="m 1139.3521,498.644 c 0.2276,-0.15626 0.2953,0.41118 0.362,0.98582 -0.099,-0.0161 -0.159,0.15476 -0.2162,0.32531 0.089,-1.05901 -0.2328,-0.25083 -0.1458,-1.31113"
           style="fill:#000000;fill-opacity:1;fill-rule:nonzero;stroke:none;stroke-width:0.138223" />
        <path
           id="path3637"
           d="m 1139.7141,639.2146 c 0.032,0.62619 0.1557,0.82394 0.1458,1.63928 -0.1885,-0.0702 -0.4276,-1.33263 -0.1458,-1.63928"
           style="fill:#000000;fill-opacity:1;fill-rule:nonzero;stroke:none;stroke-width:0.138223" />
        <path
           id="path3638"
           d="m 1140.8687,314.49354 c 0.072,0 0.1432,0 0.2146,0 0.1073,0.95433 -0.3219,0.95433 -0.2146,0"
           style="fill:#000000;fill-opacity:1;fill-rule:nonzero;stroke:none;stroke-width:0.138223" />
        <path
           id="path3639"
           d="m 1157.4942,46.454961 c -0.1088,1.490285 -0.1839,3.29578 -0.071,4.914921 -0.2891,0.773784 -0.4599,2.077824 -0.4344,4.27021 0.3663,-0.888454 0.1115,5.60273 0.1453,6.218855 0.023,0.386891 0.135,0.315316 0.1443,0.65922 0.01,0.21494 -0.1385,0.458467 -0.1443,0.329503 0.015,0.386892 0.5355,1.490285 0.071,1.633543 0.049,0.644819 0.2214,0.745196 0.2895,1.30404 -0.1285,0.845358 -0.1785,1.576154 0.072,1.977446 -0.018,0.573137 -0.1249,0.745089 -0.2885,0.64482 0.262,1.01731 -0.04,3.281379 -0.2178,4.270102 0.4167,1.590555 -0.042,2.521997 0,4.585419 -0.3348,0.329503 -0.238,-1.318333 -0.5749,-0.988723 -0.1208,3.252685 0.01,5.330508 -0.3615,8.525911 0.6099,1.131981 0.045,4.972311 0.1443,6.548465 -0.085,-0.05696 -0.2047,0.05696 -0.2156,-0.329503 -0.1869,1.217957 -0.028,3.224098 -0.4339,4.585312 0.126,2.98057 0.096,4.757368 0.5052,6.562868 l -0.1078,0.3726 c 0.1198,0.15755 0.2396,0.18624 0.3605,0.54444 l -0.035,-0.58743 c 0.095,-0.11467 0.1369,-0.47287 0.2875,-0.32961 0.4308,2.52199 -0.1656,10.71829 0.9374,9.82995 0.014,2.16369 -0.1869,3.84022 0.2885,4.25581 0.1396,-0.35831 0.1011,-1.50458 0.2163,-1.96316 h 0.072 c 0,-0.24363 -0.016,-0.48716 0.037,-0.81677 l -0.026,0.58754 c 0.2671,2.43591 0.2119,6.36222 0.7807,7.43692 l 0.038,0.48716 0.036,0.48716 c -0.1849,0.043 -0.1157,1.23236 -0.2161,1.64794 -0.055,-0.072 -0.084,-0.27233 -0.073,-0.65922 -0.2579,0.70221 -0.022,1.21807 0.073,1.96316 -0.077,1.67653 -0.1188,1.49028 -0.1443,3.28137 l -0.1084,-0.17195 -0.034,0.50157 c -0.1864,-0.94574 -0.3224,-1.8055 -0.4348,-2.29266 -0.1631,0.3439 -0.028,2.04902 -0.072,2.93747 -0.1233,0.51586 -0.2624,-0.0999 -0.5052,0.32961 -0.01,2.04903 -0.2099,5.33051 0,8.19631 0.4292,0.086 0.1881,1.40431 0.2891,2.62226 0.1786,-0.17195 0.3552,-0.043 0.5761,-0.65911 -0.072,-0.42988 -0.1948,-0.64482 -0.2157,-1.30393 0.081,-0.71651 0.4766,-0.029 0.5053,-0.98873 l 0.1077,0.17195 0.1084,-0.17195 c 0.1786,0.81677 0.3146,2.8802 0.1443,2.95177 0.3859,0.64482 0.3948,3.00916 0.8661,3.28149 0.01,-0.40129 0.022,-0.78819 0.1438,-0.65922 -0.1511,-1.50458 0.1046,-4.84324 -0.2886,-5.24453 0.2178,-0.93134 -0.046,-2.77982 0.2162,-2.95177 h 0.072 v -0.32961 c 0.096,0.42988 0.2188,0.21494 0.2885,-0.32961 0.6973,2.02043 0.1192,7.79522 0.3593,9.51474 -0.3817,0.17195 -0.1525,2.55058 -0.7202,1.96304 -0.2355,3.20981 0.2448,6.57716 0.7948,6.21897 0.102,0.97443 -0.2443,2.04912 -0.2167,0.65911 -0.3109,0.15766 -0.1323,1.67653 -0.2172,2.62226 -0.1,1.13209 -0.3136,1.51898 -0.2885,1.96316 0.1562,0.93144 0.3958,1.49028 0.5057,2.62226 0.2953,-0.25792 -0.037,-1.34692 0.1421,-1.96315 0.099,0.1 0.1391,0.47287 0.2891,0.32961 0.2199,0.85976 0.1208,3.16682 0.3615,3.9262 -0.1766,-0.27222 -0.1787,3.25279 0,2.29276 -0.1432,3.66827 0.1698,4.92922 0.2896,7.8668 -0.1292,1.10329 -0.438,-0.086 -0.4339,1.96305 0.1917,0 0.4125,0.12896 0.5057,-0.32951 0.2547,0.98873 0.6099,2.03473 0.1432,2.95177 0.473,4.87204 0.159,10.21685 0.5058,15.4041 -0.013,0.38689 -0.1135,0.35819 -0.2156,0.3295 -0.045,1.83419 0.165,2.522 0.1437,4.25581 l -0.1333,-0.15755 -0.084,0.48716 c -0.1484,0.7165 -0.2318,-0.28662 -0.3599,0.32961 l -0.084,-0.48727 c -0.01,0.83117 0.038,1.70523 0,2.53629 -0.017,0.0999 -0.051,0.15766 -0.085,0.21494 -0.1448,-0.24353 -0.2681,-0.87405 -0.4395,-0.78808 l 0.035,0.48716 c -0.1057,0.17196 -0.1817,0.48727 -0.2869,0.65922 0.064,1.24666 -0.1167,2.09201 0,2.62227 -0.07,0.55884 -0.2265,-0.22934 -0.362,0 -0.1333,0.21494 -0.6593,3.31007 -0.6484,2.95177 -0.03,0.88845 0.2416,1.34703 0.2161,2.60797 0.3266,0.28662 0.4506,-0.3582 0.5058,-1.30393 -0.01,0.55884 0.1114,0.81677 0.4312,0.65911 0.1156,0.57314 0.099,1.74822 0.1442,2.62227 -0.072,0.32961 -0.391,0.11467 -0.503,-0.32961 0.057,1.70522 0.2994,5.40219 0.2885,8.51162 -0.011,0.61623 -0.2459,0.21494 -0.2885,0.65922 0.1125,3.62528 0.3296,4.9866 0.503,8.52591 0.094,-0.029 0.1011,-0.42988 0.2172,-0.32961 0,0.42988 -0.126,0.30091 -0.1442,0.65922 0.049,4.90063 -0.034,11.79299 0.8656,13.75615 0.079,2.00603 0.016,3.8975 0.289,5.57403 0.1814,-1.08899 0.4371,-1.27524 0.5771,-0.98872 0,-0.44417 0,-0.87405 0,-1.30393 l 0.035,-0.50157 c -0.1156,-0.87405 -0.1964,-1.92005 -0.1183,-2.95176 l -0.1337,0.17195 c -0.1647,-3.26709 0.4561,-2.95188 0.3629,-5.88935 l 0.1313,0.15755 0.083,-0.48716 c 0.2463,0.84546 0.3448,2.35004 0.6495,2.93747 -0.034,-1.44719 0.1,-1.63354 0,-2.60786 l 0.1083,-0.17196 -0.036,-0.48726 c 0.2265,0.37259 0.1749,-0.51586 0.29,-0.65912 0.2761,1.24665 0.3876,3.25279 0.4319,5.55974 0.1874,1.50458 0.515,3.13813 0.1448,4.59972 l -0.109,-0.17196 0.036,1.0747 0.073,-0.57313 c 0.054,0.072 0.083,0.27222 0.072,0.64482 l -0.1459,0.086 c 0.011,0.20065 0.03,0.40119 0.036,0.7308 l 0.11,0.17195 c 0.2932,2.80851 0.3943,6.50548 0.7214,9.17073 -0.3323,1.96315 0.02,4.02658 0.1426,6.23326 0.249,4.44216 0.1751,10.61802 0.7224,13.42664 -0.057,2.23538 0.2298,4.47075 -0.2885,4.91492 l -0.036,-0.48716 -0.1084,0.15755 c -0.1219,-0.31521 -0.1849,-0.90274 -0.1459,-1.96304 -0.4129,-0.81677 -0.5677,-0.94574 -0.9348,0 0.3255,1.51887 0.1271,5.09977 0.502,6.22896 0.065,1.0489 -0.1098,1.0259 -0.215,1.31253 0.1948,0.86115 0.1749,2.69674 0.4333,3.27428 -0.019,0.90554 -0.2131,1.00162 -0.3615,1.31253 0.4974,6.65884 0.6364,13.51832 1.0104,20.64143 0.085,-0.0473 0.1631,-0.58464 0.2162,0 0.287,-0.77099 0.2516,-3.00347 0.4328,-4.25732 -0.264,-1.48158 -0.095,-4.55952 -0.2886,-5.57263 0.2871,-1.0948 0.3147,-3.38606 0.2886,-5.89935 -0.1979,-0.62483 -0.5104,-0.738 -0.5766,-1.96606 0.01,-0.72359 0.3047,-0.13756 0.4323,-0.3281 0.01,-1.06041 0.037,-2.01324 0.1443,-2.61797 l 0.1084,0.16336 0.036,-0.49437 c 0.148,0.20774 0.021,1.65794 0.288,1.31253 -0.075,0.7495 -0.046,1.97605 -0.1443,2.62227 0.1792,4.54963 0.4688,9.33849 0.5037,12.78032 1.3572,2.54489 0.5943,-8.41274 0.4354,-11.47198 0.01,-0.60183 0.2428,-0.20204 0.287,-0.65202 0.01,-2.79712 -0.5166,-3.36026 -0.2157,-5.24453 -0.4984,-1.01452 -0.4129,-4.50654 -0.1463,-5.57124 l 0.038,0.49296 c 0.05,-0.47717 0.1271,-0.96443 0.2162,-1.30974 l -0.1084,0.16196 c -0.2334,-1.02032 -0.1542,-3.45623 -0.5771,-3.5996 0.017,-2.22097 -0.1885,-3.22409 -0.5771,-4.2701 0,-0.32961 0.1266,-0.40118 0.1438,0 0.2016,0 -0.1719,-0.88845 0.1442,-0.64482 -0.3785,-4.69998 0.2595,-10.23113 -0.1442,-14.08576 0,-0.18624 0.059,-0.38689 0.072,0 -0.188,-3.08073 0.1141,-13.52681 -0.7208,-15.73359 -0.2031,0.014 -0.3526,0.88845 -0.65,0.32961 0.2,-1.41861 0.01,-1.1034 0,-2.95188 0.1286,-1.28964 0.412,-1.84848 0.2885,-4.2701 0.5792,0.3726 0.586,-7.43692 0.1453,-8.18201 0.4104,-4.32749 -0.5254,-8.32537 0.072,-12.45222 l 0.1074,0.15766 0.1088,-0.15766 c 0.1928,3.16682 0.3797,6.36222 0.7213,8.84123 0.035,1.03171 -0.1307,1.16068 -0.072,2.29266 0.2235,0.54455 0.4319,1.80549 0.5781,0.98872 l 0.1084,0.15766 0.1058,-0.15766 c 0.1697,1.34692 0.072,2.26407 0.075,3.9406 0.067,0.3439 0.2652,0.086 0.2146,0.97432 l 0.035,0.32961 0.037,0.32961 c -0.1584,0.043 -0.1542,0.81677 -0.1433,1.63355 -0.098,-0.1 -0.1391,-0.45858 -0.2905,-0.32961 l -0.034,-0.48717 -0.1084,-0.15765 c 0.1417,-1.24666 0,-3.62529 -0.2167,-4.27011 -0.2885,1.20367 -0.2463,3.89751 0.1437,4.27011 l -0.036,0.48716 0.1094,0.15766 c -0.2302,1.26094 0.1677,2.19238 0,3.28137 0.1901,0.81678 0.2417,-0.83106 0.4328,-0.98872 0.56,1.33263 -0.058,4.14125 0.7209,4.59971 l -0.036,0.48727 0.1089,0.15755 c 0,0.41559 0.091,0.45858 0.07,0.98873 v 0.32961 h 0.073 c -0.7213,2.09211 -0.056,7.06432 0,9.82995 -0.03,0.55884 -0.093,-0.072 -0.2166,0 -0.03,2.04902 0.327,2.36434 0.1432,4.25581 0.4052,2.99475 0.3896,6.24755 0.7948,9.50034 0.1661,-0.65922 0.402,0.60183 0.3598,-1.30404 l 0.1074,0.15766 0.1098,-0.15766 c 0.1703,0.74519 0.2303,2.00614 0.361,2.93758 0.062,1.0603 -0.238,0.45847 -0.2183,1.31823 0.03,0.54455 0.3199,2.57927 0.2901,1.30404 0.2219,0.3295 -0.032,1.10328 -0.072,1.31822 0,0.77379 0.125,0.96014 0.072,1.96316 0.7022,1.63354 0.3464,6.98124 0.937,8.52021 -0.1594,1.01591 -0.2078,2.54629 -0.287,3.9348 l -0.1082,-0.16766 c 0.037,0.54595 0.042,1.0934 0,1.64075 l 0.1082,-0.16766 c -0.1068,3.62959 0.4896,4.76167 0.5042,6.88377 0.2792,0.20065 0.298,0.26803 0.5062,-0.3295 l 0.1074,0.16475 -0.037,-0.49296 c 0.048,0 0.097,0 0.1442,0 -0.01,1.90866 -0.091,1.91877 -0.073,4.26011 0.1484,0.53455 0.2958,1.0647 0.5058,1.31113 -0.1975,3.68837 -0.015,6.89097 -0.4328,10.15806 0.502,1.83279 -0.037,4.92932 0.3618,7.53729 l -0.129,-0.11757 -0.087,0.44428 c -0.223,0.24073 -0.214,-0.56604 -0.4328,-0.32671 -0.3058,5.10977 0.1797,8.36976 0.3589,11.47059 0.058,0.0698 0.1427,0.0107 0.1452,0.32671 0.092,-0.0183 0.099,-0.42268 0.2157,-0.32671 l 0.035,0.49006 0.1104,-0.16335 c 0,0.54455 0,1.09049 0,1.63644 0.2527,0.28652 0.1767,0.043 0.433,0.3295 -0.01,0.57035 0.016,1.01742 0.071,1.30974 -0.1271,-0.0258 -0.5038,0.47577 -0.649,0 -0.2338,0.3683 -0.25,1.91157 -0.1428,2.94898 0.1246,-0.0226 0.223,0.072 0.288,0.32961 l -0.036,0.3252 0.036,0.32821 c -0.252,0.81097 -0.3426,5.62423 0.36,4.91492 0.087,0.22924 -0.066,1.88578 -0.07,1.96746 0.2319,0.57453 0.2475,2.1451 0.6486,1.96455 -0.2886,1.37131 0.1285,2.16369 -0.1454,3.60379 -0.1365,-0.13896 -0.1302,-0.93575 -0.3598,-0.65482 -0.2016,2.26826 -0.1688,4.87623 0.2894,6.22466 0.037,3.39175 0.512,4.24861 0.5022,6.55566 0,1.35412 -0.3178,2.92458 -0.071,5.24303 0.2046,-0.27222 0.1853,0.45858 0.3609,0.32392 0.019,-1.70813 0.1672,-1.12199 0.2901,-1.96455 0.061,0.36109 0.3703,2.40152 0.07,2.95176 0.1193,0.72371 0.3229,2.23108 0.1443,3.27569 l -0.1323,-0.16766 c 0.096,1.06901 0.2713,2.06063 0.2412,3.28149 l 0.1072,0.16045 c 0.2219,0.67352 -0.1776,2.26687 0.1453,2.62517 0.027,0.21494 -0.092,0.32381 -0.072,0 -0.1552,2.45032 0.077,6.02541 0,9.50174 -0.01,0.43128 -0.1281,0.13036 -0.1448,0.32671 -0.1005,1.21946 0,2.87159 0,3.932 0.2495,-0.26373 0.2787,0.48716 0.5047,0.32811 -0.079,1.3899 -0.2599,2.31415 -0.288,3.932 0.3803,1.97594 0.3531,5.05678 0.5047,6.55276 -0.066,1.22656 -0.5802,0.42698 -0.8662,0.65482 0.1688,2.40592 -0.07,6.65883 0.576,6.88097 -0.05,0.74369 -0.2145,0.98013 -0.3598,1.31253 0.077,3.83603 -0.2755,11.25146 -0.1432,16.37992 -0.1006,0.63762 -0.3755,0.49007 -0.5058,0.98722 -0.2229,0.0989 0.1834,-0.95143 -0.071,-0.98722 -0.277,-0.057 -0.026,0.27083 -0.072,0.98722 -0.2641,0.28953 -0.3838,-0.58034 -0.5046,0 -0.018,1.60775 0.045,2.85301 0.2156,3.60239 -0.062,0.48007 -0.057,1.26965 -0.2886,0.98303 0.092,1.19367 0,1.7811 -0.072,3.27429 0.2984,0.46276 0.413,-0.27513 0.5776,0.65771 0.07,1.18647 -0.3104,0.33531 -0.3609,0.98152 0,0.92285 -0.2052,2.21249 -0.5057,1.64075 0.071,0.44127 0.1921,0.65342 0.289,0.98292 -0.1286,0.61043 -0.4276,0.45718 -0.3598,1.96605 0.09,-0.13326 0.1452,-0.42278 0.1432,-0.98442 0.097,0 0.068,0.57604 0.1462,0.65621 0.022,0.86406 -0.1525,0.84547 -0.2894,0.98163 0.01,0.80957 0.011,1.57766 -0.073,1.96595 l -0.1073,-0.16196 c 0,0.22074 -0.016,0.3697 -0.032,0.51446 -0.1516,0.16045 -0.3204,0.46717 -0.4746,0.14046 l 0.037,0.49286 c -0.3963,2.28556 -0.058,5.42229 -0.29,8.84553 -0.1063,-0.3797 -0.1813,-0.3797 -0.2865,0 -0.1192,0.0527 -0.1192,-2.01904 0,-1.96595 -0.1312,-0.58184 -0.3703,-1.76971 -0.5782,-0.98163 v -0.32811 h -0.073 c -0.1057,0.3783 -0.1801,0.3783 -0.288,0 0.066,-1.37851 -0.027,-1.50888 -0.1432,-2.62226 0.2574,-0.70501 0.4104,-3.39745 0.1432,-4.58822 l 0.037,-0.49006 c -0.1313,0.50866 -0.277,0.49866 -0.4188,0.47717 l -0.4448,0.50575 0.1063,0.16196 c -0.6047,4.06956 -0.2047,11.28144 -0.3615,16.05461 -0.085,-0.0516 -0.2041,0.057 -0.2156,-0.32532 -0.2412,0.56175 -0.136,2.58648 0,3.27709 0.2042,0.26942 0.187,-0.46137 0.361,-0.32671 0.3166,2.01334 -0.1855,2.24827 -0.649,2.29416 -0.098,0.75798 -0.2052,1.46728 -0.3604,1.96455 -0.1849,-0.0387 -0.2521,-0.59754 -0.3614,-0.98443 0,2.14371 0.2634,8.40275 0.7937,7.8639 0,0.43848 0,0.87416 0,1.30973 -0.3041,-1.22805 -0.045,0.46857 -0.2896,1.97025 0.3812,-0.21924 0.8,-1.7854 0.7927,1.30974 0.6084,-0.22064 0.2182,2.05482 0.7948,1.96455 -0.061,0.92714 0.1026,0.84826 0.073,1.64074 l -0.1287,-0.11897 -0.089,0.44278 c -0.8359,-0.31091 -0.162,4.80745 -0.6505,5.57263 -0.03,1.12629 0.03,1.8371 0.074,2.61948 0.3406,0.13036 0.6016,-0.10317 0.8661,-0.32392 0.014,-0.25502 0,-0.64761 0.071,-0.65771 h 0.1448 v -0.65621 c 0.3219,0.64331 0.1636,1.83408 0.3609,2.62076 -0.3448,1.36272 -0.016,4.00648 -0.5765,4.58832 -0.052,1.21795 0.1219,1.4085 0.071,2.62226 0.136,0.26223 0.2652,0.54874 0.4333,0.65482 0,4.39197 0.15,9.13064 0.36,11.14248 -0.3521,0.98303 -0.051,2.98906 -0.2876,4.58542 0.1532,1.18217 0.3256,1.62774 0.3615,3.27848 0.015,0.7251 -0.1203,0.55604 -0.1468,0.98442 -0.1037,1.94166 0.1135,5.0139 -0.069,6.87807 -0.2047,-0.93563 -0.3989,-3.89471 -0.7943,-1.96455 0.031,-2.4761 0.02,-5.14995 0.3594,-6.22465 0.038,-1.86418 -0.1594,-1.93726 -0.3594,-3.27999 0.041,-0.47566 -0.084,-1.69222 0.072,-1.63784 -0.6312,-1.96594 0.1266,-7.14309 -0.65,-7.8625 0.019,2.00185 -0.096,2.11222 0.072,2.94898 0,0.97733 -0.339,0.42128 -0.4333,0.98303 -0.074,1.82269 0.03,1.95165 0,2.94897 l -0.1224,0.22923 -0.093,0.42419 c -0.048,0 -0.096,0 -0.1443,0 0,3.15102 -0.5708,3.74425 -0.5041,7.20908 0.7509,0.75949 0.3781,7.12171 0.1427,9.17653 0.035,1.69223 0.3854,1.97165 0.5786,2.94898 0.3187,0.0355 0.2495,-1.70093 0.5042,-1.96885 0.1802,-0.0462 0.3489,-0.0591 0.3604,0.65772 0.3161,-1.1149 0.389,-1.8285 0.2896,-3.6082 0.2265,-0.15476 0.162,1.01172 0.4322,0.65632 -0.102,4.13114 -0.1629,8.07604 -0.073,11.47059 0.1516,0.19065 0.2339,0.69071 0.3631,0.98302 -0.2724,1.06611 -0.4244,2.66816 -0.5797,4.26011 l -0.1307,-0.16335 c 0.026,0.341 0.024,0.6921 0.024,1.04321 l 0.024,0.92424 0.082,-0.49297 c 0.1928,0.88556 0.3475,1.91437 0.5057,2.95038 -0.2306,1.33552 -0.167,2.22967 -0.071,4.2558 -0.2896,1.8184 -0.1286,8.03166 -0.1442,9.83286 0.5985,-0.43998 0.7052,-1.67804 1.0098,-2.94898 l 0.083,0.49007 0.1324,-0.16486 c 0.026,1.17077 0.2364,6.0484 -0.071,7.53869 l -0.085,-0.49146 -0.1308,0.16185 c -0.01,-0.40258 -0.086,-0.45707 -0.074,-0.94283 l -0.1792,-0.20065 0.1074,0.16056 c 0.072,2.07632 -0.3459,1.91866 -0.361,3.60669 0.026,0.98582 0.249,2.05622 0.4328,1.31253 0.05,0.57464 0.08,1.01312 0,1.30683 0.749,1.62635 0.5714,7.46132 1.2286,9.50464 l 0.1062,0.16336 c -0.1713,-0.63622 0.029,-1.04601 0.036,-1.63784 l -0.026,1.16497 c 0.092,0.0505 0.1079,0.45277 0.1704,0.63622 -0.1094,3.86752 -0.375,8.80394 0.1443,11.47349 l 0.036,0.48716 0.034,0.49007 c -0.7916,1.4086 0.064,4.66851 -0.2864,6.88096 0.1119,0.50726 0.4307,1.94449 0.1437,2.29412 0.1411,0.82967 0.2443,-1.26528 0.5042,-0.98299 0.073,0 0.086,0.26653 0.1458,0.32957 0,1.07614 -0.124,1.63211 -0.073,2.94612 -0.2984,0.8225 -0.1,0.91277 -0.577,1.30969 -0.028,0.79385 0.1322,0.71504 0.072,1.64071 0.098,-0.10317 0.138,-0.4657 0.289,-0.32814 0.2235,1.99607 0.4547,5.20585 0.072,6.5528 0.1287,3.22123 -0.189,5.7131 0,8.84835 -0.2021,0.17482 -0.1412,1.54901 -0.3609,1.63784 0.138,4.91783 -0.5271,8.19781 -0.072,12.7832 0.092,0.45137 0.3416,0.19774 0.4328,0.64911 0.1511,2.79135 -0.3203,8.63772 0.5041,9.1765 0.2328,-2.32565 0.079,-4.95938 0.3615,-7.86393 0.4604,4.45785 0.1688,9.19942 0.3604,14.74917 0.1355,0.25936 0.2641,0.54308 0.4328,0.65485 -0.1713,-1.01738 0.1021,-2.20529 0.2172,-2.94898 -0.062,-2.90599 0.5245,-5.60706 0,-6.88237 0.1573,-0.59897 -0.013,-2.68388 0.1448,-3.27569 l 0.1084,0.15763 0.1083,-0.15763 c 0.1865,1.32403 -0.085,4.75877 0.4308,4.58826 -0.027,0.46283 -0.087,0.55168 0,0.97869 0.1916,-1.88861 0.1686,-5.76899 0.289,-8.84693 -0.1881,0.0975 -0.056,-1.26957 -0.289,-0.97868 0.1817,-1.36559 0.3156,-2.94181 0.5046,-4.26441 0.073,-1.60632 -0.089,-2.32852 0.1454,-2.94897 0.603,0.98012 0.1254,5.35917 0.4333,7.21338 l -0.1089,0.16191 0.037,0.4872 c -0.048,0 -0.097,0 -0.1444,0 -0.037,1.70663 -0.2036,4.77883 0.071,5.90081 0.086,-0.043 0.164,-0.58606 0.2172,0 0.094,-0.005 0.064,-0.5746 0.1437,-0.65055 l 0.1077,0.15763 0.1095,-0.15763 c 0,0.32384 0,0.65055 0,0.98156 0.526,-1.70518 0.7583,0.87982 1.2265,1.30683 0,3.37886 -0.033,6.92251 0.1443,9.50321 -0.1708,0.8268 -0.5308,1.69373 -0.7932,2.94898 -0.3385,-0.90418 -0.4948,0.45424 -0.8677,0.32958 -0.1703,-0.5302 -0.079,-2.26261 -0.359,-2.29413 -0.1869,1.80692 -0.2572,3.20833 -0.4337,5.56837 l -0.1089,-0.16048 c 0.092,0.59753 0.047,1.00734 0,1.30683 v -0.85546 c -0.4615,-0.44708 -0.2662,-3.89328 -0.4678,-5.53255 -0.1566,-0.0545 -0.034,1.1621 -0.073,1.63784 -0.069,-0.55168 -0.1969,-0.8397 -0.4308,-0.65915 0,0.87696 0,1.75104 0,2.62657 -0.013,0.60613 -0.2453,0.20347 -0.2885,0.65198 -0.1588,-0.25506 -0.093,-1.53897 -0.2901,-1.63785 l 0.035,-0.48862 c -0.047,0.0889 -0.096,0.12467 -0.1438,0.15906 l 0.036,0.32956 c -0.059,1.47593 -0.376,1.784 -0.4317,3.27856 -0.3151,-0.22354 -0.4011,0.58893 -0.5057,1.30826 -1.1594,1.03315 -1.3891,4.2945 -2.3798,5.89939 -0.034,0.85689 -0.054,3.44334 -0.1457,2.9504 -0.043,1.40141 0.1463,4.57105 0.2171,6.55567 -0.102,0.73939 -0.3004,1.04174 -0.4318,1.63784 l -0.1098,-0.16622 c 0.1104,0.38833 0.055,0.83396 0.019,1.28104 l 0.018,0.84973 v -0.32384 c 0.058,2.35574 0.351,3.63678 0.7198,4.58395 0.1047,3.6683 0.6448,6.63161 0.3615,9.83135 -0.4229,4.76163 -1.1573,-0.46714 -1.2975,-2.95041 -0.2702,-0.52875 -0.4926,0.78094 -0.5062,0.33101 -0.073,1.31399 0.3729,3.09799 0.2885,5.56694 -0.1135,-0.14186 -0.062,-1.02885 -0.2885,-0.65342 0.051,1.24522 0.048,1.57479 -0.073,2.62227 -0.4567,-1.00019 -0.5958,-2.46465 -0.7203,-3.93627 -0.1604,-1.8972 -0.4427,-4.15264 -0.5047,-5.57124 -0.037,-0.8311 0.033,-1.784 0,-2.62226 -0.1098,-2.75553 -0.263,-5.58271 -0.071,-8.51592 0.011,-0.3783 0.1126,-0.3568 0.214,-0.32671 -0.1338,-2.98909 -0.5932,-4.50514 -0.5749,-8.19351 -0.3713,0.2565 -0.524,-0.4614 -0.8661,-0.32671 -0.017,0.2522 0,0.64625 -0.074,0.65485 0.1292,0.84257 0.3525,1.24235 0.362,2.61941 -0.086,0.59466 -0.3771,0.25793 -0.5052,0.65771 0.14,3.05071 0.042,5.17289 0,7.53865 -0.067,0.3611 -0.1334,0.0975 -0.3604,0.32528 0.059,0.92711 -0.1016,0.84544 -0.071,1.63642 0.1229,0.4399 0.5734,1.07325 0.6485,0.65627 0.3244,3.26566 0.3921,8.93434 0.5057,12.12118 -0.062,0.48146 -0.058,1.26957 -0.2896,0.98442 0.1307,2.46034 -0.5636,2.5191 -1.0104,3.27712 0.059,4.76736 -0.7813,2.32994 -1.0818,4.91639 0.3901,2.22391 0.4104,3.79011 0.5057,6.22609 -0.1047,0.11606 -0.1525,0.3353 -0.2167,1.31687 -0.2062,-0.60183 -0.226,-2.04337 -0.5057,-2.3013 -0.5567,0.71217 0.058,5.72457 -0.3604,7.54009 l -0.1077,-0.16621 c 0.078,0.43274 0.1202,1.12055 0.072,1.6407 l 0.1082,0.16192 c 0.3334,0.59181 -0.044,1.99752 0,3.27856 0.3047,0.69066 0.6814,1.05176 0.7938,2.61796 -0.017,0.25793 -0.06,0.37973 -0.1448,0.32814 0.1688,3.01633 0.3786,6.79927 0,8.52022 -0.2796,-0.26223 -0.3203,-1.60202 -0.5031,-2.29556 -0.4651,1.80549 -0.2281,4.56532 -0.2912,7.86393 -0.084,4.63984 -0.4307,8.32964 -0.576,11.80164 -0.066,1.55329 -0.2219,2.24253 -0.2172,3.27424 0,0.50726 -0.1416,1.47163 -0.1443,1.63641 -0.032,2.36434 0.076,4.34609 0.1443,6.22753 -0.3484,2.55778 -0.7667,4.81178 -1.0807,7.53292 0.1244,-0.0201 0.1766,1.36702 0.5042,1.31543 0,1.11196 0.022,2.28409 -0.1443,2.62227 l -0.1084,-0.16766 0.1027,0.81105 h -0.036 -0.5416 -23.6396 -0.8058 -0.4344 v -142.9221 -3.04928 -8.3411 -0.0129 -32.01169 -4.9794 -17.88729 -8.75386 -11.64974 -7.77502 -216.01884 -0.99302 -281.743138 h 17.4527 c -0.014,0.587431 0.034,1.260945 0.2192,1.174969"
           style="fill:#000000;fill-opacity:1;fill-rule:nonzero;stroke:none;stroke-width:0.138223" />
        <path
           id="path3640"
           d="m 1136.9729,641.51303 0.1322,0.16191 0.083,-0.49435 c 0.3542,0.48719 -0.026,2.83434 0.074,4.26297 l -0.1333,-0.16479 -0.083,0.49292 c -0.1661,-0.77808 -0.028,-2.9418 -0.073,-4.25866"
           style="fill:#000000;fill-opacity:1;fill-rule:nonzero;stroke:none;stroke-width:0.138223" />
        <path
           id="path3641"
           d="m 1134.8447,597.00187 -0.1098,-0.3783 c 0.085,-1.8041 0.662,-1.37131 0.65,-3.60809 0.715,3.2083 -0.1074,6.70892 0.4338,10.15658 -0.1208,-0.50726 -0.2896,0.6133 -0.5036,0.65628 l -0.038,-0.49006 -0.1082,0.16049 c -0.02,-0.95721 0.1645,-1.00592 0.1458,-1.96455 -0.2542,-1.11771 -0.1433,-2.5922 -0.4344,-3.93342 -0.024,0 -0.048,0 -0.072,0 l 0.036,-0.59893"
           style="fill:#000000;fill-opacity:1;fill-rule:nonzero;stroke:none;stroke-width:0.138223" />
        <path
           id="path3642"
           d="m 1133.1494,559.91905 c -0.5801,-1.7984 0.1089,-4.47226 -0.071,-6.88098 0.02,-0.66921 0.1933,-0.64192 0.2161,-1.30974 0.2391,2.21249 0.2662,6.4568 0.071,8.84843 l -0.1324,-0.16625 -0.083,0.49006 c -0.095,0 -0.092,-0.90414 0,-0.98152"
           style="fill:#000000;fill-opacity:1;fill-rule:nonzero;stroke:none;stroke-width:0.138223" />
        <path
           id="path3643"
           d="m 1131.0573,516.34064 c -0.039,0.48297 -0.1063,0.82257 -0.1448,1.30834 -0.2454,0.0258 -0.2688,-0.96444 -0.3594,-1.63784 l 0.1068,-0.16486 0.1072,-0.16336 c 0.2276,-0.37249 0.1771,0.51736 0.2902,0.65772"
           style="fill:#000000;fill-opacity:1;fill-rule:nonzero;stroke:none;stroke-width:0.138223" />
        <path
           id="path3644"
           d="m 1131.8494,489.79707 c 0.1095,0.0634 0.066,0.79098 0.073,1.31253 l -0.1083,-0.16625 -0.1073,0.16625 c -0.021,-0.74799 0.017,-1.23375 0.1421,-1.31253"
           style="fill:#000000;fill-opacity:1;fill-rule:nonzero;stroke:none;stroke-width:0.138223" />
        <path
           id="path3645"
           d="m 1133.5103,329.56512 c 0.071,-0.7236 0.2475,0.80957 0.5038,0.3281 0.2161,0 0.2468,-0.85116 0.4344,-0.98442 0.4896,1.16927 0.5566,-0.86546 1.0093,0.33101 -0.1735,0.92854 -0.6453,2.60657 -0.8656,1.30973 -0.2147,1.32264 -0.5417,1.0704 -0.8656,0.32961 l -0.035,-0.49296 -0.1099,-0.16475 c 0,-0.32961 -0.057,-0.39119 -0.071,-0.65632"
           style="fill:#000000;fill-opacity:1;fill-rule:nonzero;stroke:none;stroke-width:0.138223" />
        <path
           id="path3646"
           d="m 1134.0141,322.03223 c 0.014,1.11618 0.2401,2.34564 0.072,3.27138 -0.3235,-1.58346 -0.7923,-2.5134 -0.9371,-4.91073 l 0.1313,0.16056 0.084,-0.49006 c 0.2672,0.42128 0.2672,2.05912 0.649,1.96885"
           style="fill:#000000;fill-opacity:1;fill-rule:nonzero;stroke:none;stroke-width:0.138223" />
        <path
           id="path3647"
           d="m 1130.4802,252.89747 c -0.014,1.1034 -0.2344,2.36434 -0.362,1.96316 l -0.071,-0.17195 -0.073,0.17195 c -0.1407,-1.30393 -0.2688,-2.37863 -0.073,-3.9406 l 0.1089,0.17195 0.1083,-0.17195 c 0,1.20366 0.2536,1.26105 0.362,1.97744"
           style="fill:#000000;fill-opacity:1;fill-rule:nonzero;stroke:none;stroke-width:0.138223" />
        <path
           id="path3648"
           d="m 1128.6775,232.24896 c -0.1828,-2.03473 -0.1224,-3.06644 -0.073,-5.90365 -0.1542,-0.20065 -0.067,-2.00614 0,-2.29276 0.1526,0.32961 0.3504,1.31833 0.2171,1.96315 0.2975,2.47901 0.1943,6.76341 0.7204,8.19641 -0.1589,1.03171 -0.1641,2.75123 -0.1443,4.58531 l -0.1322,-0.15755 -0.083,0.48716 c -0.1048,-1.70522 -0.2063,-3.43904 -0.4334,-4.58542 l -0.037,-0.48716 -0.1072,0.15766 c 0.068,-0.81677 -0.2584,-1.97745 0.073,-1.96315"
           style="fill:#000000;fill-opacity:1;fill-rule:nonzero;stroke:none;stroke-width:0.138223" />
        <path
           id="path3649"
           d="m 1126.4406,217.17447 c -0.1896,-0.78807 -0.324,-1.80549 -0.2896,-3.61099 -0.5629,-1.31822 0,-5.91793 -0.5036,-7.20757 -0.1464,-3.38176 -0.2527,-6.93547 -0.6484,-9.17084 -0.1188,-3.45333 -0.1199,-5.64572 0,-7.53719 l 0.1061,0.17195 0.1095,-0.17195 c 0.011,0.88845 0.2672,2.22108 0.2864,2.62227 0.021,0.38689 -0.1135,0.47286 -0.071,0.98872 0.074,0.90275 0.3041,1.66224 0.3599,2.60797 0.078,1.31823 -0.1968,3.63958 0.2896,4.2701 -0.1599,6.24755 0.6145,11.20557 0.577,16.70803 l -0.1328,-0.15766 -0.083,0.48716"
           style="fill:#000000;fill-opacity:1;fill-rule:nonzero;stroke:none;stroke-width:0.138223" />
        <path
           id="path3650"
           d="m 1124.277,173.92858 0.1313,0.15766 0.085,-0.48717 c 0.2484,4.98661 0.6468,10.77558 0.7214,15.7192 l -0.1323,-0.15755 -0.083,0.48716 c -0.4584,-0.58754 -0.2048,-4.52803 -0.5792,-6.21896 0.3063,-2.5076 -0.2937,-6.76341 -0.1428,-9.50034"
           style="fill:#000000;fill-opacity:1;fill-rule:nonzero;stroke:none;stroke-width:0.138223" />
        <path
           id="path3651"
           d="m 1123.5542,163.11001 c 0.072,-2.06342 -0.1172,-4.35619 0,-5.57414 l 0.1328,0.15766 0.083,-0.48727 c 0.4577,1.97744 0.3823,7.8668 0.4339,11.14828 l -0.1339,-0.17195 -0.083,0.50146 c -0.2969,-1.17497 -0.04,-4.84324 -0.4328,-5.57404"
           style="fill:#000000;fill-opacity:1;fill-rule:nonzero;stroke:none;stroke-width:0.138223" />
        <path
           id="path3652"
           d="m 1122.7609,144.10933 c -0.089,0.029 -0.1708,0.086 -0.1443,0.64482 -0.1145,-0.029 -0.056,-0.83117 -0.2176,-0.64482 0.1473,-1.97745 -0.016,-1.39002 0,-3.9406 0.011,-0.7165 0.1833,-0.7021 0.3619,-0.65911 -0.126,-2.02044 -0.1115,-4.18424 -0.2886,-5.23024 l 0.1084,-0.17195 -0.1084,-0.15766 c 0.057,-1.89147 -0.1041,-2.80851 -0.073,-4.58531 l 0.1343,0.15755 0.083,-0.48716 c 0.1917,0.88845 0.374,3.52501 0.2157,4.91492 0.1583,1.24665 0.3703,2.24977 0.4328,3.9263 -0.4641,2.20668 0.2047,5.12986 0.072,9.50034 l -0.1318,-0.15765 -0.084,0.48716 c -0.1939,-0.91704 -0.2402,-3.32437 -0.3606,-3.59659"
           style="fill:#000000;fill-opacity:1;fill-rule:nonzero;stroke:none;stroke-width:0.138223" />
        <path
           id="path3653"
           d="m 1119.6589,117.55706 0.035,0.50156 c 0.011,-0.47287 -0.024,-1.03171 -0.028,-1.28964 0.1072,-0.65922 0.2765,-1.10339 0.4566,-1.27534 0.1964,0.51585 0.1475,1.74821 0.077,2.56498 l 0.1084,-0.17195 c 0.226,2.02043 0.8255,3.58229 0.5782,5.90364 l -0.1084,-0.17195 -0.1104,0.17195 c -0.237,-1.31833 -0.4271,-2.8659 -0.5755,-4.58542 v -0.3295 c -0.078,0.14326 -0.1776,0.12897 -0.2521,0.15755 l 0.1073,0.17195 c -0.1265,1.1034 0.1328,2.49331 -0.2161,2.95188 l -0.084,-0.50156 c -0.052,0.64482 -0.1271,0.93144 -0.1896,1.14638 -0.1636,-0.28662 -0.3495,-0.22923 -0.4839,-0.81677 l 0.5333,-0.25793 c -0.1562,-1.83419 -0.3776,-3.31007 0.1522,-4.16983"
           style="fill:#000000;fill-opacity:1;fill-rule:nonzero;stroke:none;stroke-width:0.138223" />
        <path
           id="path3654"
           d="m 1118.7203,132.30193 c 0.1416,0.63053 0.1344,1.51887 0.073,1.97745 -0.017,-0.25793 -0.061,-0.38689 -0.1442,-0.32961 0.04,-0.47287 -0.084,-1.69083 0.071,-1.64784"
           style="fill:#000000;fill-opacity:1;fill-rule:nonzero;stroke:none;stroke-width:0.138223" />
        <path
           id="path3655"
           d="m 1125.9338,176.55084 c -0.1739,0.31532 -0.2375,-1.47588 -0.1437,-1.31822 0,0.64482 0.198,0.41548 0.1437,1.31822"
           style="fill:#000000;fill-opacity:1;fill-rule:nonzero;stroke:none;stroke-width:0.138223" />
        <path
           id="path3656"
           d="m 1126.7286,205.05187 c -0.017,-2.24967 -0.6287,-6.90667 -0.3604,-9.50034 -0.028,1.70522 0.4459,1.36132 0.5047,0.31531 -0.1963,-3.19551 -0.2146,-5.54545 -0.2162,-8.18211 -0.2916,-0.32951 -0.1562,-2.49331 -0.3614,-1.63355 0.071,-1.54756 0.3229,-2.24966 0.2172,-4.59971 -0.1099,-3.42463 -0.5302,-4.47075 -0.3615,-7.8524 0.2219,0.22924 0.1391,0.22924 0.3615,0 0.094,1.89148 0.236,4.77167 0.2161,7.53719 0.1969,1.90577 0.1084,3.03785 0.071,5.55974 l -0.094,0.42988 c 0.034,0.15766 0.044,0.45858 0.059,0.71651 l 0.1077,0.17195 c 0.5694,4.32749 0.4875,8.06744 0.7932,12.78172 -0.07,1.10339 -0.2656,1.63354 -0.4328,2.29276 0.066,0.94574 0.066,1.00302 0,1.96305 -0.1276,0.029 -0.3588,0.57324 -0.5046,0"
           style="fill:#000000;fill-opacity:1;fill-rule:nonzero;stroke:none;stroke-width:0.138223" />
        <path
           id="path3657"
           d="m 1127.8094,725.07017 0.1343,0.16192 0.083,-0.4915 c 0.081,0.0315 0.1141,-0.47573 0.1428,0 -0.1052,0.0631 -0.066,0.78955 -0.072,1.3097 l -0.1303,-0.16192 -0.085,0.49006 c -0.1083,-0.0631 -0.066,-0.79527 -0.073,-1.30826"
           style="fill:#000000;fill-opacity:1;fill-rule:nonzero;stroke:none;stroke-width:0.138223" />
        <path
           id="path3658"
           d="m 1127.8094,211.27083 c 0.1077,-0.28662 0.2796,-0.25793 0.2176,-1.30393 l 0.1308,0.15755 0.087,-0.48716 c 0.2376,1.71951 0.2057,3.25279 0,4.91492 h -0.075 v 0.32961 c -0.2084,-1.01742 -0.4057,-0.47287 -0.3604,-3.61099"
           style="fill:#000000;fill-opacity:1;fill-rule:nonzero;stroke:none;stroke-width:0.138223" />
        <path
           id="path3659"
           d="m 1131.2005,477.67156 c -0.176,-0.66061 0.1494,-2.19238 0,-0.3267 0.026,-0.31091 0.076,0.61763 0,0.3267"
           style="fill:#000000;fill-opacity:1;fill-rule:nonzero;stroke:none;stroke-width:0.138223" />
        <path
           id="path3660"
           d="m 1132.3551,282.70254 c -0.2114,-0.98873 -0.1661,-3.2241 0,-4.25581 l 0.1084,0.17195 0.035,-0.50156 c 0.1583,0.93144 0.1687,2.52199 0.361,3.28138 l -0.1068,0.38689 0.036,0.60183 c -0.1772,-0.043 -0.347,-0.057 -0.433,0.31532"
           style="fill:#000000;fill-opacity:1;fill-rule:nonzero;stroke:none;stroke-width:0.138223" />
        <path
           id="path3661"
           d="m 1131.7781,273.2022 c 0.2682,-0.22934 0.3109,0.55884 0.577,0.3295 l -0.034,0.50156 0.1083,0.15766 c -0.011,0.60183 -0.048,1.08899 -0.1453,1.30393 l -0.1083,-0.15766 -0.036,0.48727 c -0.2167,-0.44428 -0.3177,-1.39001 -0.3615,-2.62226"
           style="fill:#000000;fill-opacity:1;fill-rule:nonzero;stroke:none;stroke-width:0.138223" />
        <path
           id="path3662"
           d="m 1132.5714,291.88326 c 0.031,-0.24933 0.025,-0.27652 0.074,0 0.035,0.21924 -0.2672,1.63784 -0.074,0"
           style="fill:#000000;fill-opacity:1;fill-rule:nonzero;stroke:none;stroke-width:0.138223" />
        <path
           id="path3663"
           d="m 1135.9635,326.94425 c -0.1,-0.0129 -0.1598,0.15626 -0.2182,0.32821 -0.072,-0.98442 0.1625,-0.57894 0.2874,-0.65632 0.054,0.53596 -0.1416,1.4272 -0.1421,0.65632 0.044,-0.0183 0.085,-0.0473 0.073,-0.32821"
           style="fill:#000000;fill-opacity:1;fill-rule:nonzero;stroke:none;stroke-width:0.138223" />
        <path
           id="path3664"
           d="m 1135.7453,548.77657 c 0.072,-0.23214 0.4828,-0.53886 0.2874,0.331 -0.046,-0.65341 -0.2385,0.32091 -0.2874,-0.331"
           style="fill:#000000;fill-opacity:1;fill-rule:nonzero;stroke:none;stroke-width:0.138223" />
        <path
           id="path3665"
           d="m 1136.3974,410.59174 c -0.022,-0.0387 -0.045,-0.072 -0.072,-0.0903 0.036,-0.014 0.059,0.0247 0.072,0.0903"
           style="fill:#000000;fill-opacity:1;fill-rule:nonzero;stroke:none;stroke-width:0.138223" />
        <path
           id="path3666"
           d="m 1136.1786,411.48439 c 0.067,0.63343 0.2969,-0.55734 0.2188,-0.89265 0.2391,0.43848 -0.1005,1.99464 -0.2188,0.89265"
           style="fill:#000000;fill-opacity:1;fill-rule:nonzero;stroke:none;stroke-width:0.138223" />
        <path
           id="path3667"
           d="m 1136.7573,463.91251 0.07,0.16336 0.073,-0.16336 c -0.079,1.83129 0.4953,2.8874 0.1448,3.93201 0.126,-0.0258 0.2229,0.0699 0.2865,0.32531 -0.068,1.21935 -0.1652,2.30125 -0.5048,2.29835 -0.036,-2.1264 -0.152,-3.89611 -0.3604,-5.24453 0.066,-0.58034 0.1599,-1.01452 0.2901,-1.31114"
           style="fill:#000000;fill-opacity:1;fill-rule:nonzero;stroke:none;stroke-width:0.138223" />
        <path
           id="path3668"
           d="m 1137.1171,632.66323 c -0.012,-0.38402 -0.1145,-0.3568 -0.2161,-0.32527 0.046,-1.17787 -0.2339,-2.54058 0.072,-2.95184 l 0.1073,0.16335 0.1079,-0.16335 c 0.1921,1.11482 -0.1095,2.7627 -0.071,3.27711"
           style="fill:#000000;fill-opacity:1;fill-rule:nonzero;stroke:none;stroke-width:0.138223" />
        <path
           id="path3669"
           d="m 1137.2625,532.07144 c -0.018,-0.25793 0,-0.65202 -0.074,-0.65922 0,0.20065 -0.01,0.3884 -0.071,0.32821 0,-0.21784 0,-0.43847 0,-0.65631 0,-0.19915 0.01,-0.3855 0.071,-0.32671 -0.01,0.43418 0.2952,0.98872 0.074,1.31403"
           style="fill:#000000;fill-opacity:1;fill-rule:nonzero;stroke:none;stroke-width:0.138223" />
        <path
           id="path3670"
           d="m 1138.2709,545.17557 c 0.052,-0.89415 -0.1428,-0.66062 -0.1443,-1.31113 l 0.1093,-0.16336 -0.038,-0.49436 c 0.1714,-0.0107 0.213,0.56744 0.4334,0.32811 -0.038,0.47577 0.083,1.69372 -0.071,1.64074 -0.011,-0.81817 -0.2452,-0.0956 -0.2895,0"
           style="fill:#000000;fill-opacity:1;fill-rule:nonzero;stroke:none;stroke-width:0.138223" />
        <path
           id="path3671"
           d="m 1137.9823,595.30954 c 0.1708,0.76518 -0.012,1.60925 0,2.62226 0.095,0.32822 0.2671,0.31811 0.361,0.65063 0.2604,-1.98605 -0.082,-2.94618 0.217,-4.91213 h 0.071 v -0.32811 c 0.1698,0.76798 0.3911,3.02055 0.288,3.9319 -0.01,-0.39979 -0.021,-0.77658 -0.1426,-0.65052 0,0.43128 0,0.86836 0,1.30823 l -0.038,0.48867 0.038,0.49146 c -0.085,0.16056 -0.1631,0.34971 -0.2163,0.65492 0.025,1.0804 0.3824,0.66051 0.3589,1.96737 -0.2666,1.51747 -0.7172,2.20385 -0.9369,3.93197 -0.041,-0.47431 -0.112,-0.80102 -0.2157,-0.98443 0.2562,-3.25557 -0.5036,-8.34105 0.2157,-9.17222"
           style="fill:#000000;fill-opacity:1;fill-rule:nonzero;stroke:none;stroke-width:0.138223" />
        <path
           id="path3672"
           d="m 1138.8485,597.9318 c 0.2672,0.23074 0.3109,-0.56454 0.577,-0.331 0.01,0.40129 0.021,0.77808 0.1427,0.65631 -0.074,1.42151 -0.6385,2.31136 -0.7916,0.65482 l 0.1083,-0.38399 -0.036,-0.59614"
           style="fill:#000000;fill-opacity:1;fill-rule:nonzero;stroke:none;stroke-width:0.138223" />
        <path
           id="path3673"
           d="m 1137.8447,592.5755 c -0.01,0.0903 -0.014,0.24654 -0.022,0.40409 0,-0.0817 0.01,-0.17475 0.014,-0.29081 0,-0.0505 0.01,-0.0849 0.01,-0.11328"
           style="fill:#000000;fill-opacity:1;fill-rule:nonzero;stroke:none;stroke-width:0.138223" />
        <path
           id="path3674"
           d="m 1137.8447,592.5755 c 0,-0.029 0,-0.0505 0,-0.0613 0,0.0118 0,0.0441 0,0.0613"
           style="fill:#000000;fill-opacity:1;fill-rule:nonzero;stroke:none;stroke-width:0.138223" />
        <path
           id="path3675"
           d="m 1137.8223,592.97959 c -0.028,0.51016 -0.017,0.29232 0,0 v 0"
           style="fill:#000000;fill-opacity:1;fill-rule:nonzero;stroke:none;stroke-width:0.138223" />
        <path
           id="path3676"
           d="m 1137.9114,581.873 c -0.042,-0.19635 -0.1692,-1.55337 0,-1.63784 -0.021,0.96433 0.2865,1.21656 0,1.63784"
           style="fill:#000000;fill-opacity:1;fill-rule:nonzero;stroke:none;stroke-width:0.138223" />
        <path
           id="path3677"
           d="m 1138.2709,307.61256 c 0.096,-1.62494 0.3405,-0.51156 0,0 v 0"
           style="fill:#000000;fill-opacity:1;fill-rule:nonzero;stroke:none;stroke-width:0.138223" />
        <path
           id="path3678"
           d="m 1139.1354,319.40996 0.1083,-0.32961 -0.1083,-0.32671 c 0.097,-1.12918 0.6245,0.3826 0.6516,1.63924 -0.097,0.32671 -0.2688,0.30952 -0.2891,0.98163 0.3416,-0.0989 0.1124,0.27792 0.1443,0.98292 0.034,0.83118 0.5995,2.77273 0.2885,3.93201 l -0.1322,-0.16196 -0.084,0.48866 c -0.1959,-2.34574 -0.7542,-4.18993 -0.5787,-7.20618"
           style="fill:#000000;fill-opacity:1;fill-rule:nonzero;stroke:none;stroke-width:0.138223" />
        <path
           id="path3679"
           d="m 1139.2094,623.81488 c -0.4641,0.0588 0.088,-1.7883 0,0 v 0"
           style="fill:#000000;fill-opacity:1;fill-rule:nonzero;stroke:none;stroke-width:0.138223" />
        <path
           id="path3680"
           d="m 1140.0745,644.13242 c 0.1025,-1.48881 -0.046,-2.54059 0,-4.58967 0.098,-0.10317 0.1385,-0.46427 0.2885,-0.32815 l -0.037,0.49436 0.1099,-0.16621 c -0.1276,1.99033 0.044,2.88305 0.07,4.91638 -0.2182,0.23357 -0.212,-0.56601 -0.4318,-0.32671"
           style="fill:#000000;fill-opacity:1;fill-rule:nonzero;stroke:none;stroke-width:0.138223" />
        <path
           id="path3681"
           d="m 1122.7609,218.80802 c 0.262,1.0604 0.6302,3.16681 0.4313,5.24453 l -0.1057,-0.15755 -0.1084,-0.15766 c -0.2646,-0.12897 -0.1916,-1.76251 -0.5058,-1.64784 -0.1598,-2.30705 0.01,-4.01228 -0.073,-6.87807 l 0.1343,0.15755 0.083,-0.48716 c 0.3412,1.27534 0.1844,1.7912 0.1443,3.9262"
           style="fill:#000000;fill-opacity:1;fill-rule:nonzero;stroke:none;stroke-width:0.138223" />
        <path
           id="path3682"
           d="m 1135.9635,563.85245 c -0.3254,-2.20819 -0.3688,-5.3778 -0.4344,-9.17364 0.1151,-0.57034 0.2188,-1.19227 0.5036,-0.98593 -0.1613,3.98359 0.3339,8.51023 -0.069,10.15957"
           style="fill:#000000;fill-opacity:1;fill-rule:nonzero;stroke:none;stroke-width:0.138223" />
        <path
           id="path3683"
           d="m 1138.5603,530.09969 c -0.098,-1.41 -0.2869,-2.41732 -0.2894,-4.25871 l -0.035,-0.16335 c -0.1052,0.043 -0.1975,0.0978 -0.2907,-0.16476 0,-0.60183 -0.062,-1.19506 -0.017,-1.80259 0.1511,-0.0784 0.2928,0.16475 0.4333,0.41269 l 0.043,0.89694 0.082,-0.48426 c 0.114,1.88567 0.3818,3.07364 0.5058,4.91062 -0.3287,-0.43127 -0.2287,0.043 -0.4319,0.65342"
           style="fill:#000000;fill-opacity:1;fill-rule:nonzero;stroke:none;stroke-width:0.138223" />
        <path
           id="path3684"
           d="m 1138.3433,520.92746 c 0.3014,-0.39399 0.5348,-0.22784 0.7921,0.3267 0,0.65772 0,1.30974 0,1.96885 -0.2719,-0.31091 -0.3375,-0.0204 -0.5041,-0.331 l -0.036,-0.48717 -0.1088,0.15906 c -0.031,-0.62042 -0.1532,-0.82397 -0.1432,-1.63644"
           style="fill:#000000;fill-opacity:1;fill-rule:nonzero;stroke:none;stroke-width:0.138223" />
        <path
           id="path3685"
           d="m 1137.6218,517.64898 c -0.01,1.98744 0.3543,-0.44998 0.5048,0.65771 -0.052,1.30394 -0.052,1.31544 0,2.62077 -0.1579,-0.0634 -0.2292,0.26652 -0.2152,0.98442 l -0.1339,-0.16765 -0.084,0.49296 c -0.2417,-0.3324 -0.1772,-3.77144 -0.072,-4.58821"
           style="fill:#000000;fill-opacity:1;fill-rule:nonzero;stroke:none;stroke-width:0.138223" />
        <path
           id="path3686"
           d="m 1138.2709,622.17561 -0.1308,-0.16336 -0.084,0.49293 c -0.095,-4.55673 0.032,-10.53491 -0.1443,-15.07444 l 0.1063,0.16621 c -0.037,-0.32957 -0.076,-0.65915 -0.072,-0.98443 l 0.037,0.49294 c 0.5249,0.4571 0.9124,-2.6151 1.153,-1.31257 -0.096,4.22142 -0.1469,8.93863 -0.1432,14.74631 l -0.1322,-0.16623 -0.083,0.49151 c -0.2772,-1.09047 -0.4574,0.35106 -0.5058,1.31113"
           style="fill:#000000;fill-opacity:1;fill-rule:nonzero;stroke:none;stroke-width:0.138223" />
        <path
           id="path3687"
           d="m 1138.0557,622.83046 0.1313,0.16622 0.084,-0.4915 c 0.19,0.43561 0.138,1.45299 0.072,2.29412 -0.2324,-0.0459 -0.3177,-0.74512 -0.2876,-1.96884"
           style="fill:#000000;fill-opacity:1;fill-rule:nonzero;stroke:none;stroke-width:0.138223" />
        <path
           id="path3688"
           d="m 1117.313,103.64325 0.1459,5.55985 c -0.047,-1.84848 -0.1262,-3.79734 -0.1459,-5.55985"
           style="fill:#000000;fill-opacity:1;fill-rule:nonzero;stroke:none;stroke-width:0.138223" />
        <path
           id="path3689"
           d="m 1118.0354,133.44831 c 0,0.44418 -0.028,0.87406 -0.036,1.31823 l 0.036,-1.31823"
           style="fill:#000000;fill-opacity:1;fill-rule:nonzero;stroke:none;stroke-width:0.138223" />
        <path
           id="path3690"
           d="m 1119.4537,127.98884 c 0.1468,0.30092 0.1213,0.84536 0.103,1.4186 l -0.103,-1.4186"
           style="fill:#000000;fill-opacity:1;fill-rule:nonzero;stroke:none;stroke-width:0.138223" />
        <path
           id="path3691"
           d="m 1119.5703,130.41046 c -0.033,-0.30092 -0.025,-0.65911 -0.014,-1.00302 l 0.082,1.13198 c -0.02,-0.057 -0.039,-0.11467 -0.068,-0.12896"
           style="fill:#000000;fill-opacity:1;fill-rule:nonzero;stroke:none;stroke-width:0.138223" />
        <path
           id="path3692"
           d="m 1119.7307,131.81477 -0.092,-1.27535 c 0.086,0.25793 0.1068,0.80248 0.092,1.27535"
           style="fill:#000000;fill-opacity:1;fill-rule:nonzero;stroke:none;stroke-width:0.138223" />
        <path
           id="path3693"
           d="m 1122.039,167.85298 -0.1437,-2.93748 c 0.078,0.96003 0.1234,1.94876 0.1437,2.93748"
           style="fill:#000000;fill-opacity:1;fill-rule:nonzero;stroke:none;stroke-width:0.138223" />
        <path
           id="path3694"
           d="m 1122.7969,180.3052 0.072,1.97744 c -0.076,-0.63052 -0.1418,-1.26105 -0.072,-1.97744"
           style="fill:#000000;fill-opacity:1;fill-rule:nonzero;stroke:none;stroke-width:0.138223" />
        <path
           id="path3695"
           d="m 1126.2953,246.82188 -0.013,2.62226 c -0.056,-0.85976 0,-1.74821 0.013,-2.62226"
           style="fill:#000000;fill-opacity:1;fill-rule:nonzero;stroke:none;stroke-width:0.138223" />
        <path
           id="path3696"
           d="m 1128.8333,751.22405 0.023,2.84007 c -0.058,-0.92281 -0.1839,-1.98461 -0.023,-2.84007"
           style="fill:#000000;fill-opacity:1;fill-rule:nonzero;stroke:none;stroke-width:0.138223" />
        <path
           id="path3697"
           d="m 1130.5875,702.62042 c -0.073,-0.43275 -0.1286,-0.92854 -0.1802,-1.31257 l 0.1802,1.31257"
           style="fill:#000000;fill-opacity:1;fill-rule:nonzero;stroke:none;stroke-width:0.138223" />
        <path
           id="path3698"
           d="m 1132.1755,488.9788 -0.2166,-0.98292 c 0.074,0.3539 0.1604,0.55884 0.2166,0.98292"
           style="fill:#000000;fill-opacity:1;fill-rule:nonzero;stroke:none;stroke-width:0.138223" />
        <path
           id="path3699"
           d="m 1132.3209,459.15955 -0.1814,0.49286 c 0.064,-0.21774 0.1214,-0.39549 0.1814,-0.49286"
           style="fill:#000000;fill-opacity:1;fill-rule:nonzero;stroke:none;stroke-width:0.138223" />
        <path
           id="path3700"
           d="m 1134.3599,459.37159 c 0.014,-0.98013 0.018,-1.96165 0.1234,-2.83151 l -0.1234,2.83151"
           style="fill:#000000;fill-opacity:1;fill-rule:nonzero;stroke:none;stroke-width:0.138223" />
        <path
           id="path3701"
           d="m 1134.3599,459.37159 c -0.013,0.705 -0.028,1.4114 -0.092,2.08352 l 0.092,-2.08352"
           style="fill:#000000;fill-opacity:1;fill-rule:nonzero;stroke:none;stroke-width:0.138223" />
        <path
           id="path3702"
           d="m 1134.3755,477.83922 c 10e-4,0.78528 0.069,1.48308 0.035,2.29265 l -0.035,-2.29265"
           style="fill:#000000;fill-opacity:1;fill-rule:nonzero;stroke:none;stroke-width:0.138223" />
        <path
           id="path3703"
           d="m 1134.5818,475.28143 0.082,-0.55884 c -0.024,0.19484 -0.053,0.3769 -0.082,0.55884"
           style="fill:#000000;fill-opacity:1;fill-rule:nonzero;stroke:none;stroke-width:0.138223" />
        <path
           id="path3704"
           d="m 1134.4485,476.19998 c 0.037,-0.32821 0.086,-0.62053 0.1333,-0.91855 l -0.1333,0.91855"
           style="fill:#000000;fill-opacity:1;fill-rule:nonzero;stroke:none;stroke-width:0.138223" />
        <path
           id="path3705"
           d="m 1135.1318,467.35445 0.024,1.96455 c -0.019,-0.65481 -0.075,-1.32693 -0.024,-1.96455"
           style="fill:#000000;fill-opacity:1;fill-rule:nonzero;stroke:none;stroke-width:0.138223" />
        <path
           id="path3706"
           d="m 1134.5198,469.319 -0.1808,-0.65632 c 0.068,0.24933 0.16,0.3855 0.1808,0.65632"
           style="fill:#000000;fill-opacity:1;fill-rule:nonzero;stroke:none;stroke-width:0.138223" />
        <path
           id="path3707"
           d="m 1134.925,498.37887 c 0.085,1.34122 0.03,2.78852 -0.1047,4.03517 l -0.048,-3.932 c 0.064,-0.0741 0.1074,-0.11746 0.1532,-0.10317"
           style="fill:#000000;fill-opacity:1;fill-rule:nonzero;stroke:none;stroke-width:0.138223" />
        <path
           id="path3708"
           d="m 1136.0718,591.42772 c 0.047,0.12467 0.094,0.24654 0.1439,0.43848 l -0.1439,-0.43848"
           style="fill:#000000;fill-opacity:1;fill-rule:nonzero;stroke:none;stroke-width:0.138223" />
        <path
           id="path3709"
           d="m 1135.5291,583.6785 0.037,1.63633 c -0.126,-0.43127 -0.037,-1.08759 -0.037,-1.63633"
           style="fill:#000000;fill-opacity:1;fill-rule:nonzero;stroke:none;stroke-width:0.138223" />
        <path
           id="path3710"
           d="m 1136.0718,599.07818 0.1068,2.12651 c -0.073,-0.68501 -0.069,-1.41581 -0.1068,-2.12651"
           style="fill:#000000;fill-opacity:1;fill-rule:nonzero;stroke:none;stroke-width:0.138223" />
        <path
           id="path3711"
           d="m 1136.3953,529.60963 v 7.70054 c -0.1115,-2.56638 -0.1402,-5.06398 0,-7.70054"
           style="fill:#000000;fill-opacity:1;fill-rule:nonzero;stroke:none;stroke-width:0.138223" />
        <path
           id="path3712"
           d="m 1136.3953,525.51287 -0.023,-2.70254 c 0.018,0.90704 0.046,1.80119 0.023,2.70254"
           style="fill:#000000;fill-opacity:1;fill-rule:nonzero;stroke:none;stroke-width:0.138223" />
        <path
           id="path3713"
           d="m 1136.7573,605.30139 -0.038,2.29556 c 0,-0.76805 -0.01,-1.54757 0.038,-2.29556"
           style="fill:#000000;fill-opacity:1;fill-rule:nonzero;stroke:none;stroke-width:0.138223" />
        <path
           id="path3714"
           d="m 1136.7813,324.94681 0.083,0.84966 c -0.043,-0.24643 -0.064,-0.55164 -0.083,-0.84966"
           style="fill:#000000;fill-opacity:1;fill-rule:nonzero;stroke:none;stroke-width:0.138223" />
        <path
           id="path3715"
           d="m 1136.7437,610.43702 c 0.033,0.7308 0.024,1.51891 -0.096,2.07489 l 0.096,-2.07489"
           style="fill:#000000;fill-opacity:1;fill-rule:nonzero;stroke:none;stroke-width:0.138223" />
        <path
           id="path3716"
           d="m 1137.1542,537.14542 -0.1084,3.27998 c -0.01,-1.12768 0.079,-2.19099 0.1084,-3.27998"
           style="fill:#000000;fill-opacity:1;fill-rule:nonzero;stroke:none;stroke-width:0.138223" />
        <path
           id="path3717"
           d="m 1138.5234,567.62099 -0.1432,4.91073 c -0.025,-1.65504 -0.1469,-3.5996 0.1432,-4.91073"
           style="fill:#000000;fill-opacity:1;fill-rule:nonzero;stroke:none;stroke-width:0.138223" />
        <path
           id="path3718"
           d="m 1138.4531,583.6785 -0.098,-8.19931 c 0.1058,2.65386 0.1891,5.59853 0.098,8.19931"
           style="fill:#000000;fill-opacity:1;fill-rule:nonzero;stroke:none;stroke-width:0.138223" />
        <path
           id="path3719"
           d="m 1138.149,559.0091 0.1219,3.2026 c -0.1834,-0.93574 -0.1287,-2.10501 -0.1219,-3.2026"
           style="fill:#000000;fill-opacity:1;fill-rule:nonzero;stroke:none;stroke-width:0.138223" />
        <path
           id="path3720"
           d="m 1138.149,559.0091 -0.058,-1.54757 c 0.056,0.47147 0.062,1.00302 0.058,1.54757"
           style="fill:#000000;fill-opacity:1;fill-rule:nonzero;stroke:none;stroke-width:0.138223" />
        <path
           id="path3721"
           d="m 1139.8229,645.92932 c -0.03,-0.43418 -0.054,-0.87123 -0.036,-1.31113 l 0.036,1.31113"
           style="fill:#000000;fill-opacity:1;fill-rule:nonzero;stroke:none;stroke-width:0.138223" />
        <path
           id="path3722"
           d="m 1138.8109,642.65794 -0.1432,-0.983 c 0.064,0.20778 0.1537,0.46857 0.1718,0.82107 -0.01,0.0502 -0.018,0.10317 -0.029,0.16193"
           style="fill:#000000;fill-opacity:1;fill-rule:nonzero;stroke:none;stroke-width:0.138223" />
        <path
           id="path3723"
           d="m 1137.0755,639.04982 0.03,2.62512 c -0.088,-0.88268 -0.059,-1.75104 -0.03,-2.62512"
           style="fill:#000000;fill-opacity:1;fill-rule:nonzero;stroke:none;stroke-width:0.138223" />
        <path
           id="path3724"
           d="m 1137.0755,639.04982 -0.03,-2.94611 c 0.1047,0.99445 0.064,1.97028 0.03,2.94611"
           style="fill:#000000;fill-opacity:1;fill-rule:nonzero;stroke:none;stroke-width:0.138223" />
        <path
           id="path3725"
           d="m 1133.2327,563.03138 v -2.62087 c 0.043,0.85546 0.034,1.7682 0,2.62087"
           style="fill:#000000;fill-opacity:1;fill-rule:nonzero;stroke:none;stroke-width:0.138223" />
        <path
           id="path3726"
           d="m 1130.5734,514.93063 c 0.048,0.19205 0.072,0.53596 0.086,0.91565 l -0.086,-0.91565"
           style="fill:#000000;fill-opacity:1;fill-rule:nonzero;stroke:none;stroke-width:0.138223" />
        <path
           id="path3727"
           d="m 1131.9229,492.09113 c -0.043,-0.29941 -0.08,-0.68491 -0.1083,-1.14778 l 0.1083,1.14778"
           style="fill:#000000;fill-opacity:1;fill-rule:nonzero;stroke:none;stroke-width:0.138223" />
        <path
           id="path3728"
           d="m 1131.5062,484.43787 c 0.017,0.3525 0.014,0.61613 0.019,0.93574 l -0.019,-0.93574"
           style="fill:#000000;fill-opacity:1;fill-rule:nonzero;stroke:none;stroke-width:0.138223" />
        <path
           id="path3729"
           d="m 1132.1395,453.09964 -0.4692,9.33839 c 0.089,-3.18541 0.3031,-6.14298 0.4692,-9.33839"
           style="fill:#000000;fill-opacity:1;fill-rule:nonzero;stroke:none;stroke-width:0.138223" />
        <path
           id="path3730"
           d="m 1133.6911,338.90501 -0.2166,-0.49157 c 0.083,0.0645 0.1412,0.1021 0.2166,0.49157"
           style="fill:#000000;fill-opacity:1;fill-rule:nonzero;stroke:none;stroke-width:0.138223" />
        <path
           id="path3731"
           d="m 1133.6911,330.38619 -0.2912,1.31113 c 0.05,-0.47716 0.1,-0.87556 0.1256,-1.0661 0.035,-0.0462 0.1031,-0.13756 0.1656,-0.24503"
           style="fill:#000000;fill-opacity:1;fill-rule:nonzero;stroke:none;stroke-width:0.138223" />
        <path
           id="path3732"
           d="m 1132.825,296.96304 c -0.083,-0.53874 -0.1183,-0.90994 -0.1453,-1.31253 l 0.1453,1.31253"
           style="fill:#000000;fill-opacity:1;fill-rule:nonzero;stroke:none;stroke-width:0.138223" />
        <path
           id="path3733"
           d="m 1129.5797,244.52922 c 0.3302,1.81979 0.3926,4.21282 0.4302,6.56276 l -0.4302,-6.56276"
           style="fill:#000000;fill-opacity:1;fill-rule:nonzero;stroke:none;stroke-width:0.138223" />
        <path
           id="path3734"
           d="m 1129.4833,243.55479 -0.1807,-4.06956 c 0.071,1.36132 0.1864,2.65096 0.1807,4.06956"
           style="fill:#000000;fill-opacity:1;fill-rule:nonzero;stroke:none;stroke-width:0.138223" />
        <path
           id="path3735"
           d="m 1128.0641,229.78435 -0.2656,-6.33363 c 0.074,2.14939 0.2333,4.15554 0.2656,6.33363"
           style="fill:#000000;fill-opacity:1;fill-rule:nonzero;stroke:none;stroke-width:0.138223" />
        <path
           id="path3736"
           d="m 1124.4083,174.08624 -0.338,-5.90365 c 0.1536,1.92006 0.2312,3.8975 0.338,5.90365"
           style="fill:#000000;fill-opacity:1;fill-rule:nonzero;stroke:none;stroke-width:0.138223" />
        <path
           id="path3737"
           d="m 1127.0911,289.93881 -0.037,-0.83966 c 0.04,0.24352 0.038,0.54014 0.037,0.83966"
           style="fill:#000000;fill-opacity:1;fill-rule:nonzero;stroke:none;stroke-width:0.138223" />
        <path
           id="path3738"
           d="m 1127.1255,290.73839 c -0.034,-0.23784 -0.034,-0.52156 -0.034,-0.79958 l 0.034,0.79958"
           style="fill:#000000;fill-opacity:1;fill-rule:nonzero;stroke:none;stroke-width:0.138223" />
        <path
           id="path3739"
           d="m 1124.0229,236.0176 -0.1443,-0.15765 c 0.047,0.029 0.096,0.057 0.1443,0.15765"
           style="fill:#000000;fill-opacity:1;fill-rule:nonzero;stroke:none;stroke-width:0.138223" />
        <path
           id="path3740"
           d="m 1123.1823,236.34711 c -0.048,-0.63042 -0.088,-0.96003 -0.096,-1.64784 l 0.096,1.64784"
           style="fill:#000000;fill-opacity:1;fill-rule:nonzero;stroke:none;stroke-width:0.138223" />
        <path
           id="path3741"
           d="m 1122.9401,244.85872 -0.1432,0.65923 c 0.032,-0.25793 0.067,-0.44429 0.1432,-0.65923"
           style="fill:#000000;fill-opacity:1;fill-rule:nonzero;stroke:none;stroke-width:0.138223" />
        <path
           id="path3742"
           d="m 1120.0193,135.25381 -0.1798,-1.14638 c 0.1208,0.14325 0.1194,0.77378 0.1798,1.14638"
           style="fill:#000000;fill-opacity:1;fill-rule:nonzero;stroke:none;stroke-width:0.138223" />
        <path
           id="path3743"
           d="m 1118.7933,136.90164 -0.036,1.14638 c -0.048,-0.54455 -0.013,-1.07469 0.036,-1.14638"
           style="fill:#000000;fill-opacity:1;fill-rule:nonzero;stroke:none;stroke-width:0.138223" />
        <path
           id="path3744"
           d="m 1120.7775,123.61836 0.072,0.83107 c -0.028,-0.15755 -0.043,-0.34391 -0.072,-0.83107"
           style="fill:#000000;fill-opacity:1;fill-rule:nonzero;stroke:none;stroke-width:0.138223" />
        <path
           id="path3745"
           d="m 1128.4947,234.87122 0.2172,-0.81677 c -0.06,0.24364 -0.1374,0.61613 -0.2172,0.81677"
           style="fill:#000000;fill-opacity:1;fill-rule:nonzero;stroke:none;stroke-width:0.138223" />
        <path
           id="path3746"
           d="m 1129.4833,243.55479 -0.4099,0.32961 c 0.1256,-0.20064 0.2355,-0.22934 0.4099,-0.32961"
           style="fill:#000000;fill-opacity:1;fill-rule:nonzero;stroke:none;stroke-width:0.138223" />
        <path
           id="path3747"
           d="m 1129.2526,245.36029 0.3271,-0.83107 c -0.099,0.42988 -0.2042,0.63042 -0.3271,0.83107"
           style="fill:#000000;fill-opacity:1;fill-rule:nonzero;stroke:none;stroke-width:0.138223" />
        <path
           id="path3748"
           d="m 1124.277,232.57857 -0.038,-0.81677 c 0.034,0.21494 0.031,0.55884 0.038,0.81677"
           style="fill:#000000;fill-opacity:1;fill-rule:nonzero;stroke:none;stroke-width:0.138223" />
        <path
           id="path3749"
           d="m 1125.1417,146.88915 c -0.138,-1.10329 -0.1814,-2.37864 -0.2527,-3.61099 l 0.2527,3.61099"
           style="fill:#000000;fill-opacity:1;fill-rule:nonzero;stroke:none;stroke-width:0.138223" />
        <path
           id="path3750"
           d="m 1127.9437,725.23209 -0.097,-3.27712 c 0.056,1.08187 0.064,2.18523 0.097,3.27712"
           style="fill:#000000;fill-opacity:1;fill-rule:nonzero;stroke:none;stroke-width:0.138223" />
        <path
           id="path3751"
           d="m 1128.1578,210.12445 -0.089,-1.69083 c 0.04,0.54455 0.093,1.0747 0.089,1.69083"
           style="fill:#000000;fill-opacity:1;fill-rule:nonzero;stroke:none;stroke-width:0.138223" />
        <path
           id="path3752"
           d="m 1128.4594,221.75989 c -0.086,-1.46159 -0.1292,-3.03785 -0.1844,-4.58542 l 0.1844,4.58542"
           style="fill:#000000;fill-opacity:1;fill-rule:nonzero;stroke:none;stroke-width:0.138223" />
        <path
           id="path3753"
           d="m 1133.2942,285.00379 c -0.252,-0.0989 0.01,-0.88695 -0.1448,-0.98442 0,0.76948 -0.1973,-0.11897 -0.1452,-0.65482 h 0.1452 v -0.66201 c 0.3776,-0.28662 0.3677,1.17067 0.5048,1.97315 -0.088,0.0935 -0.1319,0.37678 -0.2516,0.3396 l 0.072,0.47856 c -0.079,-0.20204 -0.1495,-0.60183 -0.1459,-0.98152 l -0.034,0.49146"
           style="fill:#000000;fill-opacity:1;fill-rule:nonzero;stroke:none;stroke-width:0.138223" />
        <path
           id="path3754"
           d="m 1133.1494,283.36455 -0.3968,-1.57916 c 0.1401,0.47287 0.2855,0.94573 0.3968,1.57916"
           style="fill:#000000;fill-opacity:1;fill-rule:nonzero;stroke:none;stroke-width:0.138223" />
        <path
           id="path3755"
           d="m 1132.4635,278.61868 c -0.07,-0.50156 -0.1057,-1.03171 -0.1369,-1.57626 l 0.1369,1.57626"
           style="fill:#000000;fill-opacity:1;fill-rule:nonzero;stroke:none;stroke-width:0.138223" />
        <path
           id="path3756"
           d="m 1132.3266,277.04242 -0.1511,-1.70523 c 0.08,0.53026 0.114,1.11769 0.1511,1.70523"
           style="fill:#000000;fill-opacity:1;fill-rule:nonzero;stroke:none;stroke-width:0.138223" />
        <path
           id="path3757"
           d="m 1132.5359,273.86131 -0.215,0.17195 c 0.07,-0.0999 0.1426,-0.18624 0.215,-0.17195"
           style="fill:#000000;fill-opacity:1;fill-rule:nonzero;stroke:none;stroke-width:0.138223" />
        <path
           id="path3758"
           d="m 1133.0781,503.06746 -0.034,4.2758 c 0,-1.45729 -0.062,-2.94747 0.034,-4.2758"
           style="fill:#000000;fill-opacity:1;fill-rule:nonzero;stroke:none;stroke-width:0.138223" />
        <path
           id="path3759"
           d="m 1135.7833,573.51754 v -3.9305 c 0.1985,1.05751 0.085,2.78272 0,3.9305"
           style="fill:#000000;fill-opacity:1;fill-rule:nonzero;stroke:none;stroke-width:0.138223" />
        <path
           id="path3760"
           d="m 1136.5755,676.57114 0.072,-0.49149 c -0.012,0.28802 -0.044,0.3783 -0.072,0.49149"
           style="fill:#000000;fill-opacity:1;fill-rule:nonzero;stroke:none;stroke-width:0.138223" />
        <path
           id="path3761"
           d="m 1137.0083,459.15955 -0.1808,4.91632 c 0.048,-1.68223 -0.1052,-3.51352 0.1808,-4.91632"
           style="fill:#000000;fill-opacity:1;fill-rule:nonzero;stroke:none;stroke-width:0.138223" />
        <path
           id="path3762"
           d="m 1136.8646,596.91879 v -3.74146 c 0.09,1.22237 0.021,2.53629 0,3.74146"
           style="fill:#000000;fill-opacity:1;fill-rule:nonzero;stroke:none;stroke-width:0.138223" />
        <path
           id="path3763"
           d="m 1138.2359,543.70108 -0.4193,-0.59463 c 0.1391,0.11457 0.2871,0.12037 0.4193,0.59463"
           style="fill:#000000;fill-opacity:1;fill-rule:nonzero;stroke:none;stroke-width:0.138223" />
        <path
           id="path3764"
           d="m 1137.8166,543.10645 c -0.054,-0.0462 -0.1083,-0.10639 -0.1577,-0.22644 l 0.1577,0.22644"
           style="fill:#000000;fill-opacity:1;fill-rule:nonzero;stroke:none;stroke-width:0.138223" />
        <path
           id="path3765"
           d="m 1139.7985,326.12748 0.071,1.0905 c -0.032,-0.38829 -0.056,-0.76949 -0.071,-1.0905"
           style="fill:#000000;fill-opacity:1;fill-rule:nonzero;stroke:none;stroke-width:0.138223" />
        <path
           id="path3766"
           d="m 1139.0999,318.917 0.1438,0.16335 c -0.064,-0.0183 -0.1026,-0.0892 -0.1438,-0.16335"
           style="fill:#000000;fill-opacity:1;fill-rule:nonzero;stroke:none;stroke-width:0.138223" />
        <path
           id="path3767"
           d="m 1123.0865,223.895 0.1057,1.96304 c -0.098,-0.57313 -0.066,-1.30393 -0.1057,-1.96304"
           style="fill:#000000;fill-opacity:1;fill-rule:nonzero;stroke:none;stroke-width:0.138223" />
        <path
           id="path3768"
           d="m 1123.9885,205.75407 -0.2182,-4.14124 c 0.1063,1.30404 0.1588,2.73694 0.2182,4.14124"
           style="fill:#000000;fill-opacity:1;fill-rule:nonzero;stroke:none;stroke-width:0.138223" />
        <path
           id="path3769"
           d="m 1138.3619,524.12297 c 0.082,-0.56895 0.1204,-1.24526 0.2334,-1.71813 l -0.2334,1.71813"
           style="fill:#000000;fill-opacity:1;fill-rule:nonzero;stroke:none;stroke-width:0.138223" />
        <path
           id="path3770"
           d="m 1137.9286,523.71028 -0.1511,-1.96605 c 0.07,0.64202 0.1491,1.22945 0.1511,1.96605"
           style="fill:#000000;fill-opacity:1;fill-rule:nonzero;stroke:none;stroke-width:0.138223" />
        <path
           id="path3771"
           d="m 1137.9453,525.51287 c -0.078,0.58894 -0.046,1.53328 -0.2167,1.8041 l 0.2167,-1.8041"
           style="fill:#000000;fill-opacity:1;fill-rule:nonzero;stroke:none;stroke-width:0.138223" />
      </g>
    </g>
  </g>
</svg>
