<?xml version="1.0" encoding="UTF-8" standalone="no"?>
<!-- Created with Inkscape (http://www.inkscape.org/) -->

<svg
   version="1.1"
   id="svg1"
   width="736.13733"
   height="118.83588"
   viewBox="0 0 736.13733 118.83588"
   sodipodi:docname="path2862.svg"
   inkscape:version="1.4.2 (f4327f4, 2025-05-13)"
   xmlns:inkscape="http://www.inkscape.org/namespaces/inkscape"
   xmlns:sodipodi="http://sodipodi.sourceforge.net/DTD/sodipodi-0.dtd"
   xmlns="http://www.w3.org/2000/svg"
   xmlns:svg="http://www.w3.org/2000/svg">
  <defs
     id="defs1" />
  <sodipodi:namedview
     id="namedview1"
     pagecolor="#ffffff"
     bordercolor="#000000"
     borderopacity="0.25"
     inkscape:showpageshadow="2"
     inkscape:pageopacity="0.0"
     inkscape:pagecheckerboard="0"
     inkscape:deskcolor="#d1d1d1"
     inkscape:zoom="1.5961696"
     inkscape:cx="368.06866"
     inkscape:cy="-141.27572"
     inkscape:window-width="2560"
     inkscape:window-height="1377"
     inkscape:window-x="1912"
     inkscape:window-y="-8"
     inkscape:window-maximized="1"
     inkscape:current-layer="g1">
    <inkscape:page
       x="0"
       y="0"
       width="736.13733"
       height="118.83588"
       id="page2"
       margin="0"
       bleed="0" />
  </sodipodi:namedview>
  <g
     id="g1"
     inkscape:groupmode="layer"
     inkscape:label="1"
     transform="translate(-764.03324,-353.93077)">
    <g
       id="group-R5"
       transform="rotate(-90,1132.1019,413.3487)">
      <path
         id="path2862"
         d="m 8704.55,11612.8 c -25.22,-9.3 -49.94,2 -75.23,3.7 -2.95,22.3 -33.85,24.2 -55.2,33.1 -29.77,-8.8 -42.61,-30.1 -65.22,-44.2 l 2.53,5.6 -7.51,1.8 c -10.32,18 23.39,36.6 0,40.4 l 2.49,5.6 c -17.79,-7 -35.91,-3.7 -55.18,-5.6 l -2.5,-3.6 c -3.31,-5 -10.71,-6.9 -20.08,-7.4 0.17,-3.6 6.15,-2.8 10.04,-3.6 -5.57,-11.4 -28.57,-10 -15.03,-25.8 -23.56,-4.8 -48.31,-8.7 -60.18,-22.1 -2.43,-23.8 36.03,-17.7 35.06,-40.5 0.87,-4.3 9.16,-3 15.1,-3.6 2.06,-8.9 -9.18,-8 -5.04,-18.4 l -7.51,-1.9 2.51,-5.5 c -19.69,-4.2 -18.66,-0.7 -40.12,-3.6 18.52,-14.6 11.87,-31.3 15.05,-51.5 3.9,-8.2 31.01,0.7 25.07,-14.7 -17.1,-2.2 -26.36,-10.2 -45.15,-11.1 -3.68,-10 9.94,-7.4 10.02,-14.7 40.82,4.3 84.1,7.5 95.29,-18.4 8.39,0 16.72,0 25.07,0 0.93,-8 -4.09,-11.7 -15.02,-11 11.83,-11 22.62,-22.7 40.13,-29.4 -12.92,-6.5 -8.53,-25.7 -15.04,-36.8 -7.45,4.2 -12.67,4.2 -20.07,0 -2.72,-5.4 5.83,-19 -5.02,-18.4 1.79,-12.2 28.94,-5.8 45.15,-7.4 -0.41,-5.8 2.41,-14 -5.02,-14.7 l -7.53,1.9 -2.49,-5.6 c -4.28,-0.6 -4.74,1.5 -5.02,3.7 -30.2,2.1 -32.56,-12.8 -35.14,-22.1 4.43,-12.7 39.02,-3.2 35.14,-22 39.36,14.9 71.87,-15.5 105.31,-3.7 l 7.52,-1.9 2.54,5.6 c 11.81,0 14.77,-6.4 30.09,-3.7 -12.57,-10.4 -21.71,-23.3 -30.09,-36.8 -10.34,1 -1.21,16.3 -15.06,14.7 -21.05,-14.2 3.7,-51.9 35.11,-51.5 13.47,-8.5 15.75,-25.2 35.09,-29.4 2.03,-17.4 -8.92,-25.3 -5,-44.2 l -9.19,1.9 -5.83,-5.5 c -7.17,4.5 -11.42,14 -5.03,18.4 -22.65,4.3 -21.72,-8.6 -25.08,-18.4 l -7.55,1.8 10.06,-18.4 7.53,1.9 c 11.85,-10.2 -7.9,-17.2 -5.04,-25.8 -22.32,-5.3 -31.08,1.3 -50.16,-3.6 23.44,13.2 -5.9,32.5 -15.03,51.4 -15.58,-20.1 -11.77,-44.6 -30.09,-55.1 -0.78,-14.9 14.94,-30.5 -10.04,-33.1 l -7.53,1.8 -1.66,-11 9.19,1.8 c 0,-1.2 0,-2.4 0,-3.6 20.47,-4.7 43.08,-7.7 45.14,-25.8 -32.23,-8.9 -87.78,-9.1 -120.4,-22.1 -1.74,-13.5 18.28,-11.1 30.11,-14.7 -1.48,-12.4 -22.22,-10.7 -25.08,-22.1 -1.37,-13.2 19.84,-10 20.08,-22 l -7.52,-1.9 c 6.69,-1.3 13.36,-1.9 20.08,-3.6 l 2.47,5.5 c 38.24,-7.1 74.66,13.3 95.3,-3.7 -7.31,-25.3 -66.12,-12.8 -90.31,-25.8 l 1.84,6.6 -14.35,-4.7 -2.51,-5.6 c 0,-1.2 0,-2.4 0,-3.6 l -7.51,1.8 -2.54,-5.5 c -8.51,1.4 -9.46,-2.9 -10.01,-7.3 l -7.5,1.8 2.48,-5.5 c 0.93,-3.2 -1.96,-3.5 -5.03,-3.7 -4.29,-11.8 7.9,-11.4 10.05,-18.4 -16.13,-39.5 12.55,-70 75.25,-44.1 6.62,-18.3 -6.55,-31.7 0,-44.2 -17.38,-6.2 -46.14,6.8 -45.16,-18.4 -15.77,8.6 -22.48,4.7 -40.14,7.4 -8.36,7.3 0.48,4.7 0,14.7 -10.06,-1.3 -15.69,0.8 -15.05,7.4 l -2.48,5.5 c -5.97,-3 -12.36,-3.8 -20.08,-3.7 l -2.49,-5.5 -7.56,-1.8 -6.41,-10.6 8.91,1.4 c 1.46,-6 -4.72,-6.4 -4.97,-11.1 0.9,-11.5 27.02,-4.7 25.05,-18.4 31.1,14.5 49.95,-6 85.3,3.7 -1.59,-8.5 0.8,-14.1 4.98,-18.4 4.5,2.3 8.98,4.4 10.06,0 4.66,2.7 7.57,6.7 10.04,11 l 7.52,-1.8 2.52,5.5 c 11.78,5.7 42.64,-31.3 65.17,-7.3 h 5.02 v 3.6 c 4.28,0.7 4.77,-1.4 5.04,-3.6 11,2.6 16.65,17.2 30.09,7.3 0,4.9 0,9.8 0,14.7 -22.27,2.1 -31.79,13.5 -45.15,22.1 64.38,-1.5 9.08,58 40.14,69.9 l 7.51,-1.9 7.53,1.9 c 14.43,-0.4 8.69,-15.7 25.11,-14.7 -3.8,-43.3 25.6,-92.7 -10.09,-117.7 2,-9.9 17.69,-18.1 20.09,-25.8 1.13,-3.6 -9.34,-6.8 -10,-11 -1.38,-8.5 14.94,-12.1 15.03,-14.7 0.14,-5.4 -13.63,-8.7 -15.03,-14.7 -3.43,-14.4 20.19,-25.6 10,-44.2 11.28,-7.4 11.56,-8.1 30.1,-14.7 l 7.51,-1.9 7.53,1.9 c -9.33,-12.7 2.37,-19.6 5.04,-33.1 8.85,-0.8 25.07,3.7 20.05,-7.4 h -10.05 v -7.3 c -3.32,0 -6.67,0 -10,0 -26.48,-18.6 17.34,-47.3 -5.04,-66.2 29.65,-12.4 -13.1,-75.4 25.09,-95.6 l 5.02,-5.6 5.01,5.6 c 14.99,-14.4 -11.18,-26.4 0,-44.2 -17.92,1.6 -27.53,9.3 -35.12,18.4 -1.67,0 -3.32,0 -5.02,0 l -2.51,5.5 -7.51,-1.8 c -21.93,9.7 -9.28,44.7 -30.1,55.2 0.12,3.5 6.15,2.8 10.02,3.6 -6.21,16.7 -14.61,-6.3 -25.09,3.7 l 2.54,5.5 -7.56,1.9 c -3.97,29.3 -3.61,48.5 -25.05,69.9 5.82,5.5 14.51,9 15.06,18.3 1.91,12.5 -22.19,5.8 -15.06,22.1 l 7.52,-1.8 2.51,5.5 c 9.53,5.4 0.6,24.1 -10.03,14.7 l -2.53,5.6 -7.51,-1.9 c -6.15,1.6 -10.3,4.7 -10.04,11 -12.71,-1 -28.4,-15.8 -35.1,0 -8.87,-3.3 -6.42,-14.9 -25.08,-11 -13.58,8.1 -1.37,12.2 -10.05,22.1 l 7.57,4.2 c -8.3,1.7 -14.94,6.1 -16.77,12.3 l -5.81,-5.5 c -6.25,10.1 -24.26,11.6 -35.12,18.4 -0.42,-46.3 21.03,-100.6 10.02,-136.1 -18.26,-3.6 -2.32,17.9 -25.11,11 -1.62,17.6 13.92,31.6 -10,36.8 26.94,33.8 -12.01,46.2 -25.08,73.5 -10.05,0 -20.08,0 -30.09,0 -5.86,5.6 -6.25,15.1 -15.06,18.5 l 2.52,5.5 c -5.03,-2.4 -10.03,-4.5 -15.08,-7.4 l 7.56,1.9 c 0.51,-16.3 -5.98,-27.6 -25.07,-29.5 6.4,-14.9 2.64,-37.3 10.01,-51.5 -5.83,0.6 -8.91,-0.8 -10.01,-3.6 -16.31,10.2 -16.87,20.1 -20.08,33.1 -7.31,-4.7 -14.67,-18.3 -15.04,-29.5 -0.61,-17.5 20.89,-41.7 0,-51.5 l -7.53,1.9 c -1.28,-5 -3.56,-10.1 -7.52,-12.9 l -0.19,-7.9 -0.66,-27 5.84,5.5 c 11.84,-1.1 9.34,-12.8 25.1,-11.1 4.28,-11.7 -7.92,-11.3 -10.05,-18.3 2.77,-10.3 19.41,-10.3 30.13,-14.8 l 7.49,-1.8 7.55,1.8 c 2.66,-2.9 5.2,-5.9 4.97,-11 19.97,11.2 61.69,6.8 75.27,-7.3 -10.68,-8.1 -18.68,-13.7 -30.11,-3.7 1.81,-4.8 8.87,-5.8 10.05,-11 8.52,1.3 9.45,-2.9 10.01,-7.4 16.31,5.8 18.56,-0.2 30.12,3.7 8.74,2.9 18.61,22 25.08,22 -3.11,0 32.66,-23.8 40.13,-44.1 6.74,-18.3 5.84,-43.7 -5.04,-55.1 4.95,-5 13.42,-7.4 20.07,-11.1 19.83,11.5 46.83,5.3 75.27,3.6 -14.47,-19.2 -18.52,-37.2 5,-51.5 -13.75,-35.5 -0.96,-53.9 -10.03,-84.5 -1.64,-11.1 -27.56,-4.3 -30.09,-14.7 5.34,-3.4 1.56,-13.6 15.05,-11 -23.34,-35.3 -2.09,-53 35.09,-66.3 -0.96,-20 -24.78,-21.82 -45.13,-18.36 13.8,-18.66 -5.56,-20.56 10.04,-33.1 l -2.53,-5.55 2.53,-5.5 c -8.37,-13.53 -32.54,-23.68 0,-29.39 l 5,-1.85 5.03,1.85 c 8.24,-7.49 16.76,-14.69 35.08,-14.73 -6.47,-18.25 12.16,-18.08 10.05,-33.13 -8.99,-0.46 -10.55,4.52 -20.07,3.7 -5.06,-29.52 -3.37,-41.52 10.02,-62.53 l -7.5,1.85 c 9.29,-5.71 9.73,-14.44 11.85,-22.33 l 5.7,-10.8 c 4.15,-0.25 8.3,-0.46 11.42,-0.86 7.24,-5.11 12.75,-12.3 11.16,-19.99 3.26,-1.18 4.92,-2.84 6.48,-4.56 -1.53,-6.12 -1.56,-12.45 -1.46,-18.71 l 2.49,5.52 c 4.24,-35.44 22.44,-70.1 10.05,-106.68 -7.44,-4.24 -12.64,-4.24 -20.07,0 0,-6.18 0,-12.26 0,-18.38 l -9.18,1.85 c 4.9,-14.36 3.13,-28.66 4.15,-43.25 -4.7,-1.52 -8.66,-2.13 -12.53,-2.76 l -2.51,-3.65 c -0.05,-9.79 2.8,-21.67 -10.05,-22.07 l -5.84,5.49 -9.17,-1.85 c 4.31,14.69 -5.55,28.61 -20.07,18.43 l -7.54,1.85 -7.53,-1.85 c -4.31,29.76 -30.86,49.25 -10.01,73.54 -3.61,13.32 -29.13,10.53 -30.12,25.78 -13.72,-3.38 8.95,-12.91 -5.01,-18.42 -13.86,-0.61 -17.21,5.68 -10.01,11.06 l 4.99,1.81 c -6.9,-0.08 -10.79,0.86 -15.03,1.85 v -3.66 c 13.22,-29.39 -3.92,-65.12 5.01,-91.96 14.18,-3.05 12.99,5.18 25.08,3.65 1.86,-27.21 4.21,-47.23 -5.03,-73.54 10.48,-8.3 29.16,-10.52 40.13,-18.43 l -2.49,-5.5 7.53,1.86 c -0.65,-6.62 6.14,-7.78 5,-14.72 50.11,3.91 68.17,-58.18 65.2,-84.61 l -7.52,1.86 2.53,-5.52 c -9.01,-50.23 -2.18,-61.25 10.02,-95.66 20.01,-3.62 15.11,11.01 35.13,7.35 11.05,-4.15 11.34,-16.15 15.03,-25.72 -4.46,-2.85 -11.31,-3.99 -20.07,-3.66 17.12,-49.47 -59.23,-60.84 -25.07,-99.32 -17.43,-6.95 -22.75,-38.24 0,-44.15 16.37,-0.97 24.15,4.35 25.07,14.71 20.02,-23.32 64.99,-26.56 100.33,-11.03 -1.86,-6.24 3.89,-6.94 10.03,-7.35 -3.44,-23.23 -45.39,-18.25 -45.14,-44.15 -26.89,-0.08 -16.07,27.46 -45.15,25.77 -11.27,-1.56 -0.12,-19.53 -10.02,-22.06 -19.69,2.75 -12.69,24.98 -35.12,25.73 -11.33,-2.76 -1.95,-20.64 -5.02,-29.44 -26.72,7.15 -31.45,-20.85 -20.07,-29.44 l -2.49,-5.51 7.51,-1.8 c -1.59,-8.67 -7.93,-13.81 -5.02,-25.78 -13.23,-1.11 -16.47,5.1 -15.07,14.72 -8.99,-11.8 -3.31,-34.32 -35.09,-29.44 8.02,-25.73 0.36,-38.84 -5,-62.53 21.1,-0.73 21.06,13.98 40.09,14.73 10.11,-12.01 11.99,-24.39 5.02,-40.5 l -2.48,-5.46 2.48,-5.55 c -9.58,-4.7 -1.64,-17.51 0,-18.38 l 5.89,-5.51 c 2.78,3.48 4.67,6.94 6.63,10.45 l 5.05,7.93 -12.5,-1.81 c 0,2.43 0,4.9 0,7.32 l 2.49,5.55 -2.49,5.46 c 9.32,-0.45 16.73,-2.38 20.02,-7.32 6.76,2.42 9.36,7.86 10.05,14.71 l 7.53,-1.84 2.5,5.5 c 14.22,0.63 20.89,6.75 35.11,7.37 -12.57,-16.53 -15.82,-39.88 -35.11,-51.48 l -5.83,5.51 c -1.4,-3.73 -1.69,-7.56 -1.86,-11.42 -0.25,-4.82 -0.36,-9.66 -2.34,-14.31 l 5,1.82 c 0.94,-3.01 5.06,-3.66 5.03,-7.33 l -7.52,-1.85 -2.51,-5.55 c -2.08,-8.83 9.16,-7.97 5,-18.37 -11.63,1.16 -19.24,-0.58 -25.07,-3.66 l -7.51,1.81 -2.49,-5.52 c -4.21,12.88 -22.28,15.59 -35.14,22.09 -7.38,-13.45 -27.24,3.57 -30.09,-14.72 -17.99,4.81 -38.27,-3.87 -25.09,11.02 -21.57,-12.34 5.09,-31.5 35.1,-22.04 -7.84,-17.56 -17.72,-33.58 -30.08,-47.82 l -7.53,1.81 -5.02,-11.02 7.53,1.86 c 5.3,-9.62 26.3,-7.74 30.1,-18.43 -6.54,-21.95 29.29,-12.81 50.13,-14.71 l -2.48,-5.51 7.5,-1.8 c -1.5,-8.73 -17.38,-6.87 -15.01,-18.42 -20.93,15.7 -72.11,4.4 -95.32,0 0.79,0.17 -0.64,6.67 0,7.35 -15.24,-4.51 5.45,-12.66 0,-22.07 28.33,-13.53 61.69,-23.43 100.31,-29.44 17.16,-0.28 2.91,22.41 20.07,22.08 23.11,-5.22 24.19,-45.87 55.2,-33.09 5.72,-3.49 4.85,-29.55 15.03,-40.45 l -2.49,-5.51 c 7.19,0.12 12.93,-1.07 16.56,-2.34 5.97,-9.04 7.88,-26.56 -11.57,-27.09 l -2.5,-5.55 c -2.14,-6.99 -14.33,-6.63 -10.02,-18.38 12.61,17.22 31.48,0.13 40.13,-7.36 -6.87,-10.77 -13.62,-12.46 0,-22.03 l -2.51,-5.56 12.52,7.37 -4.99,-1.81 c -9.72,11.67 1.98,33.74 10.02,44.11 25.34,-6.53 39,4.43 55.2,0 12.89,5.88 7.64,22.98 25.05,33.09 -19.85,54.96 1.93,142.49 20.09,183.92 45.88,-16.28 16.87,-94.71 0,-121.4 -1.32,-10.72 11.32,-11.3 10.01,-22.02 -19.14,-52.01 -26.17,-111.7 -40.14,-158.16 l -5.84,5.5 c -3.84,-7.27 -2.08,-18 -12.51,-22.27 -1.42,0 -2.79,0.2 -4.19,0.44 l -36.84,-48.04 9.25,1.81 c -4.6,-22.95 2.88,-37.13 20.01,-44.15 -19.02,-64.88 -54.29,-129.59 -55.13,-187.59 l -7.53,-4.23 2.48,-6.79 c -18,-34.17 -45.13,-67.75 -35.08,-106.68 -9.11,-3.16 -13.85,-9.45 -25.09,-11.07 34.23,-9.61 75.84,37.83 100.34,-3.65 33.41,8.96 68,-8.96 95.3,-7.32 l -2.53,-5.54 7.52,1.84 c 6.82,-1.15 4.15,-9.21 5.02,-14.71 -40.9,-8.05 -90.2,5.41 -115.38,-18.38 -10.45,-1.61 -13.23,2.5 -20.03,3.66 -11.41,-13.11 -3.7,-18.67 -15.05,-33.1 -26.41,0.95 -46.77,-2.5 -65.22,-7.35 7.02,-11.06 7.31,-26.72 -10.05,-29.44 l -5.82,5.52 2,-43.01 0.62,-13.2 -34.41,-13.65 7.5,-1.89 c 4.63,-6.41 9.37,-12.74 25.12,-10.97 0.41,-5.22 0.8,-10.48 -5.03,-11.06 l -5.02,4.94 -4.98,-4.94 c -18.25,2.35 -19.74,-7.6 -20.08,-18.38 l -9.24,1.85 c 0.53,-2.3 1.49,-4.48 2.58,-6.58 3.31,-6.33 8.11,-12.37 7.48,-19.2 l 9.17,1.82 c 0.6,-6.91 16.59,-2.54 15.07,-11.02 l -7.51,-1.85 2.53,-5.47 c -2.21,-5.5 -6.45,1.43 -15.09,0 -6.53,-15.87 14.22,-11.63 20.07,-18.42 l -4.98,-5.51 4.98,-5.51 c -7.51,-7.89 -12.28,2.64 -25.06,-3.69 0.28,-12.04 14.26,-14.05 9.99,-29.4 -6.54,-1.3 -7.86,-6.49 -15.02,-7.35 -16.21,-3.33 -7.05,11.96 -15.04,14.71 -24.75,0.74 -50.95,-10.4 -65.23,3.62 9.21,11.34 -4.51,16.56 5.02,25.78 17.32,2.91 22.07,-3.42 25.07,-11.02 8.97,6.37 22.46,16.45 5.02,22.07 l 7.53,4.28 -2.49,6.74 c 4.26,-0.66 4.76,1.44 5.01,3.7 l 7.51,-1.85 -15.06,11.02 2.54,-5.5 c -27.5,1.87 -37.01,16.97 -65.21,18.36 l 2.49,5.52 -7.52,-1.82 c -31.06,4.81 -51.13,-5.22 -60.19,14.72 -8.83,-0.9 -11.42,-6.33 -10.03,-14.72 -28.1,-3.08 -47.49,5.93 -65.21,0 11.4,-17.02 34.04,-11.96 65.21,-25.73 -8.89,-17.51 4.94,-18.01 10.03,-33.13 -8.99,-0.46 -10.6,4.53 -20.08,3.69 6.97,-2.3 0.8,-14.18 10.05,-14.76 l -2.52,-5.46 10.08,-1.27 -2.54,6.73 c 23.92,-4.02 30.37,4.75 40.13,11.07 l 5.84,-5.5 c 3.38,4.18 6.2,6.27 9.22,9.19 h -10.08 c -0.75,9.17 7.93,11.39 10.08,18.37 8.31,-0.77 20.13,-27.32 0,-25.72 -0.44,-10.03 8.35,-7.41 0,-14.76 4.5,-4.11 11.21,0.24 20.03,-7.31 -4,-12.5 -11.63,-22.34 -30.11,-14.72 l -7.5,1.84 2.52,-5.5 c -6.68,0 -13.38,0 -20.06,0 -6.71,-2.55 2.47,-9.84 -5.02,-18.42 11.37,-10.07 31.39,-13.78 45.16,-22.08 18.26,14.64 4.66,49.5 50.14,51.48 1.6,-8.6 7.93,-13.78 5.02,-25.7 18.57,-2.59 8.63,15.7 20.07,18.38 15.05,-0.46 16.06,-20.85 10.01,-25.78 22.75,-16.9 50.86,-16.65 70.25,-29.4 -11.75,-7.31 -22.45,-15.41 -25.12,-29.43 -21.87,6.04 -37.86,16.36 -45.13,33.14 -18.71,-0.33 -14.27,-4.17 -30.08,0 5.28,-17.36 -12.34,-42.01 0,-66.22 -19.42,-3.22 -8.2,16.06 -30.1,11.04 -16.39,-3.94 -20.24,-17.01 -35.1,-22.07 14.26,-4.28 7.09,-24.26 25.05,-25.78 -0.48,-9.4 -18.65,-5.88 -25.05,-11.02 -3.07,-18.21 11.34,-23.56 15.03,-36.79 12.74,1.69 8.43,15.88 20.07,18.42 10.36,-7.15 9.58,-22.45 15.04,-33.15 -11.61,1.22 -19.26,-0.61 -25.09,-3.68 1.25,-3.96 9.97,-2.47 10.05,-7.36 l -2.48,-5.47 15,-1.23 -2.5,6.7 c 6.68,0 13.38,0 20.08,0 l -2.5,-5.47 c 3.24,3.86 4.14,7.11 6.39,9.89 3.99,2.31 8.07,2.28 13.64,1.13 l -2.5,5.49 c 20.98,5.51 47.05,-18.93 10.05,-22.02 6.03,-4.86 1.94,-5.8 0,-11.07 14.67,2.72 24.66,8.89 35.11,14.73 16.02,-6.13 6.46,-11.31 20.04,-14.73 17.11,-4.31 34.28,7.9 45.17,7.37 28.23,-1.4 39.17,-9.37 65.22,-18.37 8.51,-1.36 9.46,2.83 10.01,7.35 8.61,-4.73 19.73,-7.64 20.06,-18.42 -8.79,-7.02 -18.76,-13.19 -35.12,-14.67 6.03,4.78 1.96,5.75 0,10.97 -12.99,-2.75 -33.15,-11.33 -45.13,-3.65 7.85,-8.97 10.39,-21.83 20.07,-29.39 16.43,0.15 19.21,10.44 40.12,7.35 17.51,-11.51 44.8,-58.75 5.03,-69.88 12.07,-16.24 20.44,-9.14 35.11,-11.06 10.6,-16.65 -18.38,-22.91 -10.05,-25.77 -32.27,-2.76 -46.44,39.5 -105.32,29.43 3.81,-9.45 15.99,-12.79 35.11,-11.02 8.3,-9.13 -15.54,-16.82 15.05,-18.41 -1.88,-17.32 -6.35,-18.51 10.01,-25.71 16.74,3.66 17.41,19.11 35.12,22.04 -10.08,-13.98 30.65,-18.01 50.18,-22.04 10.07,-24.48 58.38,-20.92 70.25,-44.14 6.15,-11.93 -16.27,-2.8 -10.07,-14.72 -34.11,-1.73 -41.28,16.32 -55.18,29.39 -34.01,-7.44 -100.55,19.41 -100.31,-33.07 -6.7,0 -13.38,0 -20.08,0 -3.17,-8.05 14.22,-11.75 -4.99,-11.04 3.32,-11.02 10.7,3.54 20.06,0 0,-3.69 0,-7.36 0,-11.07 h -10.04 c 2.58,-2.38 4.37,-5.82 6.25,-9.11 1.15,-2.02 2.33,-3.95 3.79,-5.6 v 7.4 c 20.4,-4.68 16.85,-26.88 45.12,-25.73 14.62,17.27 -17.66,27.45 -25.05,40.42 42.97,10.59 65.58,-8.92 75.23,-33.1 -14.17,3.04 -13.01,-5.18 -25.08,-3.66 -0.64,-6.62 6.15,-7.77 4.98,-14.72 -8.31,0 -16.71,0 -25.06,0 2.36,-17.48 -6.23,-4.12 -15.03,-11.05 35.02,-2.47 48.37,-20.89 70.21,-33.11 2.36,-7.85 -7.16,-6.98 -15.01,-7.32 l -5.89,5.52 -9.22,-1.85 c -29.26,4.88 -79.29,7.89 -65.16,33.09 -16.29,-0.33 -3.55,-21.95 -25.11,-18.38 -2.11,7.04 -1.8,15.83 -15.04,14.67 l 2.52,5.52 c -5.23,0.37 -12,0.21 -17.14,2.02 -0.84,1.52 -1.69,3.08 -2.92,5.38 l -2.53,-5.54 c -4.25,-0.66 -4.71,1.46 -5,3.69 l 6.28,4.57 c -2.65,0.97 -5.74,2.79 -8.79,4.63 l -2.51,-5.55 c -8.35,0 -16.71,0 -25.05,0 13.52,-32.96 75.09,-30.71 110.34,-47.77 -2.15,-8.26 -10.79,-11.75 -15.05,-18.41 14.5,-18.79 31.1,-36.05 60.18,-44.1 -3.81,-28.79 -13.66,-31.17 -20.08,-58.88 -29.56,4.49 -27.13,-14.46 -40.1,-22.07 v 3.66 h -5.03 c -16.92,12.17 -15.97,37.37 -35.12,47.8 -14.62,-32.02 39.55,-46.7 25.09,-84.57 l -7.51,-1.84 2.49,-5.51 c -4.46,-2.87 -11.31,-3.94 -20.07,-3.69 -9.76,6.32 -15.21,15.85 -30.09,18.4 l -5.85,5.48 c -3.18,-3.66 -7.08,-6.91 -11.71,-10.98 l 7.54,1.81 c 1.24,-4.6 9.95,-3.7 10.02,0 9.96,-6.2 8,-21.09 20.07,-25.74 -8.82,0.33 -19.91,-9.82 -30.09,-18.41 -14.06,13.81 -24.5,-2.39 -45.14,-3.66 -15.15,-30.34 17.46,-29.35 35.09,-51.47 -1.55,-8.67 -17.42,-6.86 -15.07,-18.42 5.68,-22.65 20.78,-14.59 50.19,-29.43 -4.09,-6.82 -6.52,-14.84 -15.05,-18.42 -14.5,1.65 -22.86,7.82 -25.05,18.42 -12.89,-4.03 -9.87,-19.73 -10.09,-33.09 -8.86,-6.91 -14.61,4.4 -25.05,-3.66 5.66,-20.15 -15.6,-20.44 -20.08,-33.15 -16.82,-3.78 -7.79,11.48 -10.01,18.43 -24.16,-6.78 -11.05,-24.46 -20.07,-36.8 -33.5,8.97 -53.39,9.25 -85.3,14.72 2.3,17.6 2.3,15.5 0,33.1 -17.49,-3.12 -31.77,-24.71 -40.09,-3.67 -14.73,-3.16 2.99,-11.83 0,-18.41 -5.82,3.09 -13.47,4.86 -25.11,3.7 7.13,12.95 -14.05,23.52 -20.04,14.71 -12.24,3.7 20.55,14.84 4.99,22.09 -17.47,2 -21.39,-24.71 -4.99,-25.78 -0.75,-8.06 -12.64,-7.89 -25.12,-7.36 5.57,-11.84 26.24,-12.66 30.11,-25.78 26.08,3.79 42.58,2.63 55.19,-10.97 l -7.52,-4.32 12.11,-2.96 23,-5.64 -2.53,5.56 c 15.9,0.58 16.79,-9.83 35.13,-7.36 6.81,1.1 4.18,9.21 5.03,14.72 16.14,-9 31.69,-18.5 40.12,-33.14 45.82,4.19 55.52,-18.18 100.32,-14.67 -0.2,-11.27 9.45,-11.55 15.05,-25.79 18.35,-2.42 19.24,7.98 35.13,7.38 6.94,-16.29 5.99,-32.16 -5.04,-44.13 -39.45,7.82 -26.2,-11.71 -45.14,-22.08 -12.48,7.99 -14.63,23.6 -30.08,29.4 -12.88,-0.36 -8.09,-13.68 -15.06,-18.37 -22.19,-2.59 -35.17,9.36 -45.15,-3.66 -4.9,8.43 6.84,13.86 5,29.39 l 7.52,1.85 -15.03,3.66 2.51,-5.51 c -33.25,-1.46 -34.17,11.52 -60.17,7.36 4.66,16.94 -16.08,15.18 -25.1,22.09 4.1,-4.37 12.07,-22.87 0,-40.46 l -2.51,-5.55 2.51,-5.47 c -5.94,-10.36 -37.46,-1.98 -35.11,-18.43 -7.67,6.67 -18.07,11.27 -15.07,25.78 -4.55,8.12 -34.6,7.25 -20.06,18.39 -12.46,0.57 -15.54,-5.8 -25.08,-7.41 23.66,-16.93 28.95,-47.43 55.19,-62.52 23.37,1.93 44.74,7.23 60.21,-3.66 l -2.53,-5.52 c 16.56,6.43 33.37,2.52 45.13,-7.35 l -2.5,5.51 c 19.6,3.41 43.07,-19.08 60.2,-29.39 5.89,0.57 4.26,6.66 5.03,11.01 7.34,-3.2 19.42,-2.95 15.04,-14.72 l -7.53,1.86 2.53,-5.51 c -20.27,-4.98 -1.7,-28.57 -20.07,-22.12 16.14,-16.07 -7.66,-44.03 20.07,-55.17 -12.44,-22.12 -36.18,-40.78 -75.27,-33.05 l 2.5,5.5 -7.49,-1.84 c -4.13,32.43 38.01,31 45.14,55.17 -32.59,5.62 -47.14,-19.45 -95.31,-7.36 -15.3,-14.88 -26.49,-42.31 -10.06,-55.17 10.25,8.17 30.18,9.46 50.19,3.7 l -2.5,-5.55 7.51,1.85 c -0.18,-13.6 7.69,-21.34 15.04,-29.43 l -7.51,-1.86 c 6.24,-0.09 16.36,-0.4 20.07,-1.85 l -2.52,3.71 c -1.42,5.96 4.74,6.33 5.02,11.01 25.51,-20.15 50.68,4.48 75.21,7.4 0.86,-11.68 -13.3,-12.28 -9.99,-25.77 12.45,0.57 20.81,-1.9 25.06,-7.33 0.61,-10.76 -29.32,-15.16 -30.09,-3.69 -11.63,-1.2 -19.24,0.57 -25.07,3.69 12,-26.71 -10.18,-51.62 10.03,-73.58 -1.44,-27.34 -27.46,-29.47 -30.12,-47.82 -12.99,-9.49 -20.72,19.17 -35.11,0 -20.49,9.88 -23.21,38.44 -45.12,36.8 -0.32,12 -14.26,14.01 -10.04,29.44 -4.47,-2.3 -8.96,-4.49 -10.06,0 0.64,17.19 7.35,-4.03 20.1,0 12.92,0.85 -6.88,6.29 0,14.68 l 9.19,-1.81 c -5.27,11.02 -11.41,21.08 -13.39,33.08 l -5.84,-5.51 c -12.49,-3.53 -30.28,13.08 -30.13,-3.7 -11.67,19.62 -28.75,35.33 -55.16,44.12 l -2.49,5.55 -5.01,-14.72 7.5,1.81 c -2.05,-14.38 13.01,-23.36 -5.02,-29.39 1.27,-3.99 10,-2.51 10.04,-7.37 10.35,1 1.21,16.29 15.06,14.73 19.15,3 19.41,-7.85 25.08,-14.73 l -7.54,-1.84 2.52,-5.52 c -3.31,-16.39 -31.17,-6.65 -40.14,-11.03 17.61,-6.3 24.79,-14.65 60.21,-14.74 9.53,-6.49 11.89,-18.26 20.06,-25.7 -11.66,-15.98 -53.71,-9.65 -70.24,-22.07 -13.41,12.22 -26.47,24.71 -55.16,25.74 -6.59,-1.31 -7.87,-6.46 -15.05,-7.36 0.74,-8.05 12.62,-7.9 25.05,-7.36 -6.89,-22.29 16.58,-22.2 40.15,-22.08 6.94,-13.27 14.03,-33.45 35.12,-25.73 2.49,-12.33 8.45,-22.09 12.27,-33.4 h -440.95 v 5521.03 h 614.17 c -18.78,-27.1 47.18,-21 45.25,-47.6"
         style="fill:#252122;fill-opacity:1;fill-rule:nonzero;stroke:none"
         transform="matrix(0.13333333,0,0,-0.13333333,0,1600)"
         inkscape:export-filename="path2862.svg"
         inkscape:export-xdpi="96"
         inkscape:export-ydpi="96" />
    </g>
  </g>
</svg>
