<?xml version="1.0" encoding="UTF-8" standalone="no"?>
<!-- Created with Inkscape (http://www.inkscape.org/) -->

<svg
   version="1.1"
   id="svg1"
   width="736.13739"
   height="101.08295"
   viewBox="0 0 736.13739 101.08296"
   xmlns:xlink="http://www.w3.org/1999/xlink"
   xmlns="http://www.w3.org/2000/svg"
   xmlns:svg="http://www.w3.org/2000/svg">
  <defs
     id="defs1">
    <linearGradient
       id="linearGradient2">
      <stop
         style="stop-color:#ffffff;stop-opacity:1;"
         offset="0.37223974"
         id="stop2" />
      <stop
         style="stop-color:#eff9f9;stop-opacity:0;"
         offset="1"
         id="stop3" />
    </linearGradient>
    <linearGradient
       xlink:href="#linearGradient2"
       id="linearGradient3"
       x1="384.62213"
       y1="-1091.6091"
       x2="384.62213"
       y2="-1060.8367"
       gradientUnits="userSpaceOnUse"
       gradientTransform="matrix(1,0,0,2.1527779,0,1258.3683)" />
  </defs>
  <g
     id="g1"
     transform="translate(-764.03319,-366.8666)">
    <g
       id="group-R5"
       transform="rotate(-90,1132.1019,413.3487)">
      <g
         id="g7">
        <g
           id="g3"
           transform="translate(52.8613,-7.2e-5)">
          <g
             id="g4">
            <path
               id="path3639"
               d="m 1102.6329,46.455001 c -0.1088,1.490285 -0.1839,3.29578 -0.071,4.914921 -0.2891,0.773784 -0.4599,2.077824 -0.4344,4.27021 0.3663,-0.888454 0.1115,5.60273 0.1453,6.218855 0.023,0.386891 0.135,0.315316 0.1443,0.65922 0.01,0.21494 -0.1385,0.458467 -0.1443,0.329503 0.015,0.386892 0.5355,1.490285 0.071,1.633543 0.049,0.644819 0.2214,0.745196 0.2895,1.30404 -0.1285,0.845358 -0.1785,1.576154 0.072,1.977446 -0.018,0.573137 -0.1249,0.745089 -0.2885,0.64482 0.262,1.01731 -0.04,3.281379 -0.2178,4.270102 0.4167,1.590555 -0.042,2.521997 0,4.585419 -0.3348,0.329503 -0.238,-1.318333 -0.5749,-0.988723 -0.1208,3.252685 0.01,5.330508 -0.3615,8.525911 0.6099,1.131981 0.045,4.972311 0.1443,6.548465 -0.085,-0.05696 -0.2047,0.05696 -0.2156,-0.329503 -0.1869,1.217957 -0.028,3.224098 -0.4339,4.585312 0.126,2.98057 0.096,4.757368 0.5052,6.562868 l -0.1078,0.3726 c 0.1198,0.15755 0.2396,0.18624 0.3605,0.54444 l -0.035,-0.58743 c 0.095,-0.11467 0.1369,-0.47287 0.2875,-0.32961 0.4308,2.52199 -0.1656,10.71829 0.9374,9.82995 0.014,2.16369 -0.1869,3.84022 0.2885,4.25581 0.1396,-0.35831 0.1011,-1.50458 0.2163,-1.96316 h 0.072 c 0,-0.24363 -0.016,-0.48716 0.037,-0.81677 l -0.026,0.58754 c 0.2671,2.43591 0.2119,6.36222 0.7807,7.43692 l 0.038,0.48716 0.036,0.48716 c -0.1849,0.043 -0.1157,1.23236 -0.2161,1.64794 -0.055,-0.072 -0.084,-0.27233 -0.073,-0.65922 -0.2579,0.70221 -0.022,1.21807 0.073,1.96316 -0.077,1.67653 -0.1188,1.49028 -0.1443,3.28137 l -0.1084,-0.17195 -0.034,0.50157 c -0.1864,-0.94574 -0.3224,-1.8055 -0.4348,-2.29266 -0.1631,0.3439 -0.028,2.04902 -0.072,2.93747 -0.1233,0.51586 -0.2624,-0.0999 -0.5052,0.32961 -0.01,2.04903 -0.2099,5.33051 0,8.19631 0.4292,0.086 0.1881,1.40431 0.2891,2.62226 0.1786,-0.17195 0.3552,-0.043 0.5761,-0.65911 -0.072,-0.42988 -0.1948,-0.64482 -0.2157,-1.30393 0.081,-0.71651 0.4766,-0.029 0.5053,-0.98873 l 0.1077,0.17195 0.1084,-0.17195 c 0.1786,0.81677 0.3146,2.8802 0.1443,2.95177 0.3859,0.64482 0.3948,3.00916 0.8661,3.28149 0.01,-0.40129 0.022,-0.78819 0.1438,-0.65922 -0.1511,-1.50458 0.1046,-4.84324 -0.2886,-5.24453 0.2178,-0.93134 -0.046,-2.77982 0.2162,-2.95177 h 0.072 v -0.32961 c 0.096,0.42988 0.2188,0.21494 0.2885,-0.32961 0.6973,2.02043 0.1192,7.79522 0.3593,9.51474 -0.3817,0.17195 -0.1525,2.55058 -0.7202,1.96304 -0.2355,3.20981 0.2448,6.57716 0.7948,6.21897 0.102,0.97443 -0.2443,2.04912 -0.2167,0.65911 -0.3109,0.15766 -0.1323,1.67653 -0.2172,2.62226 -0.1,1.13209 -0.3136,1.51898 -0.2885,1.96316 0.1562,0.93144 0.3958,1.49028 0.5057,2.62226 0.2953,-0.25792 -0.037,-1.34692 0.1421,-1.96315 0.099,0.1 0.1391,0.47287 0.2891,0.32961 0.2199,0.85976 0.1208,3.16682 0.3615,3.9262 -0.1766,-0.27222 -0.1787,3.25279 0,2.29276 -0.1432,3.66827 0.1698,4.92922 0.2896,7.8668 -0.1292,1.10329 -0.438,-0.086 -0.4339,1.96305 0.1917,0 0.4125,0.12896 0.5057,-0.32951 0.2547,0.98873 0.6099,2.03473 0.1432,2.95177 0.473,4.87204 0.159,10.21685 0.5058,15.4041 -0.013,0.38689 -0.1135,0.35819 -0.2156,0.3295 -0.045,1.83419 0.165,2.522 0.1437,4.25581 l -0.1333,-0.15755 -0.084,0.48716 c -0.1484,0.7165 -0.2318,-0.28662 -0.3599,0.32961 l -0.084,-0.48727 c -0.01,0.83117 0.038,1.70523 0,2.53629 -0.017,0.0999 -0.051,0.15766 -0.085,0.21494 -0.1448,-0.24353 -0.2681,-0.87405 -0.4395,-0.78808 l 0.035,0.48716 c -0.1057,0.17196 -0.1817,0.48727 -0.2869,0.65922 0.064,1.24666 -0.1167,2.09201 0,2.62227 -0.07,0.55884 -0.2265,-0.22934 -0.362,0 -0.1333,0.21494 -0.6593,3.31007 -0.6484,2.95177 -0.03,0.88845 0.2416,1.34703 0.2161,2.60797 0.3266,0.28662 0.4506,-0.3582 0.5058,-1.30393 -0.01,0.55884 0.1114,0.81677 0.4312,0.65911 0.1156,0.57314 0.099,1.74822 0.1442,2.62227 -0.072,0.32961 -0.391,0.11467 -0.503,-0.32961 0.057,1.70522 0.2994,5.40219 0.2885,8.51162 -0.011,0.61623 -0.2459,0.21494 -0.2885,0.65922 0.1125,3.62528 0.3296,4.9866 0.503,8.52591 0.094,-0.029 0.1011,-0.42988 0.2172,-0.32961 0,0.42988 -0.126,0.30091 -0.1442,0.65922 0.049,4.90063 -0.034,11.79299 0.8656,13.75615 0.079,2.00603 0.016,3.8975 0.289,5.57403 0.1814,-1.08899 0.4371,-1.27524 0.5771,-0.98872 0,-0.44417 0,-0.87405 0,-1.30393 l 0.035,-0.50157 c -0.1156,-0.87405 -0.1964,-1.92005 -0.1183,-2.95176 l -0.1337,0.17195 c -0.1647,-3.26709 0.4561,-2.95188 0.3629,-5.88935 l 0.1313,0.15755 0.083,-0.48716 c 0.2463,0.84546 0.3448,2.35004 0.6495,2.93747 -0.034,-1.44719 0.1,-1.63354 0,-2.60786 l 0.1083,-0.17196 -0.036,-0.48726 c 0.2265,0.37259 0.1749,-0.51586 0.29,-0.65912 0.2761,1.24665 0.3876,3.25279 0.4319,5.55974 0.1874,1.50458 0.515,3.13813 0.1448,4.59972 l -0.109,-0.17196 0.036,1.0747 0.073,-0.57313 c 0.054,0.072 0.083,0.27222 0.072,0.64482 l -0.1459,0.086 c 0.011,0.20065 0.03,0.40119 0.036,0.7308 l 0.11,0.17195 c 0.2932,2.80851 0.3943,6.50548 0.7214,9.17073 -0.3323,1.96315 0.02,4.02658 0.1426,6.23326 0.249,4.44216 0.1751,10.61802 0.7224,13.42664 -0.057,2.23538 0.2298,4.47075 -0.2885,4.91492 l -0.036,-0.48716 -0.1084,0.15755 c -0.1219,-0.31521 -0.1849,-0.90274 -0.1459,-1.96304 -0.4129,-0.81677 -0.5677,-0.94574 -0.9348,0 0.3255,1.51887 0.1271,5.09977 0.502,6.22896 0.065,1.0489 -0.1098,1.0259 -0.215,1.31253 0.1948,0.86115 0.1749,2.69674 0.4333,3.27428 -0.019,0.90554 -0.2131,1.00162 -0.3615,1.31253 0.4974,6.65884 0.6364,13.51832 1.0104,20.64143 0.085,-0.0473 0.1631,-0.58464 0.2162,0 0.287,-0.77099 0.2516,-3.00347 0.4328,-4.25732 -0.264,-1.48158 -0.095,-4.55952 -0.2886,-5.57263 0.2871,-1.0948 0.3147,-3.38606 0.2886,-5.89935 -0.1979,-0.62483 -0.5104,-0.738 -0.5766,-1.96606 0.01,-0.72359 0.3047,-0.13756 0.4323,-0.3281 0.01,-1.06041 0.037,-2.01324 0.1443,-2.61797 l 0.1084,0.16336 0.036,-0.49437 c 0.148,0.20774 0.021,1.65794 0.288,1.31253 -0.075,0.7495 -0.046,1.97605 -0.1443,2.62227 0.1792,4.54963 0.4688,9.33849 0.5037,12.78032 1.3572,2.54489 0.5943,-8.41274 0.4354,-11.47198 0.01,-0.60183 0.2428,-0.20204 0.287,-0.65202 0.01,-2.79712 -0.5166,-3.36026 -0.2157,-5.24453 -0.4984,-1.01452 -0.4129,-4.50654 -0.1463,-5.57124 l 0.038,0.49296 c 0.05,-0.47717 0.1271,-0.96443 0.2162,-1.30974 l -0.1084,0.16196 c -0.2334,-1.02032 -0.1542,-3.45623 -0.5771,-3.5996 0.017,-2.22097 -0.1885,-3.22409 -0.5771,-4.2701 0,-0.32961 0.1266,-0.40118 0.1438,0 0.2016,0 -0.1719,-0.88845 0.1442,-0.64482 -0.3785,-4.69998 0.2595,-10.23113 -0.1442,-14.08576 0,-0.18624 0.059,-0.38689 0.072,0 -0.188,-3.08073 0.1141,-13.52681 -0.7208,-15.73359 -0.2031,0.014 -0.3526,0.88845 -0.65,0.32961 0.2,-1.41861 0.01,-1.1034 0,-2.95188 0.1286,-1.28964 0.412,-1.84848 0.2885,-4.2701 0.5792,0.3726 0.586,-7.43692 0.1453,-8.18201 0.4104,-4.32749 -0.5254,-8.32537 0.072,-12.45222 l 0.1074,0.15766 0.1088,-0.15766 c 0.1928,3.16682 0.3797,6.36222 0.7213,8.84123 0.035,1.03171 -0.1307,1.16068 -0.072,2.29266 0.2235,0.54455 0.4319,1.80549 0.5781,0.98872 l 0.1084,0.15766 0.1058,-0.15766 c 0.1697,1.34692 0.072,2.26407 0.075,3.9406 0.067,0.3439 0.2652,0.086 0.2146,0.97432 l 0.035,0.32961 0.037,0.32961 c -0.1584,0.043 -0.1542,0.81677 -0.1433,1.63355 -0.098,-0.1 -0.1391,-0.45858 -0.2905,-0.32961 l -0.034,-0.48717 -0.1084,-0.15765 c 0.1417,-1.24666 0,-3.62529 -0.2167,-4.27011 -0.2885,1.20367 -0.2463,3.89751 0.1437,4.27011 l -0.036,0.48716 0.1094,0.15766 c -0.2302,1.26094 0.1677,2.19238 0,3.28137 0.1901,0.81678 0.2417,-0.83106 0.4328,-0.98872 0.56,1.33263 -0.058,4.14125 0.7209,4.59971 l -0.036,0.48727 0.1089,0.15755 c 0,0.41559 0.091,0.45858 0.07,0.98873 v 0.32961 h 0.073 c -0.7213,2.09211 -0.056,7.06432 0,9.82995 -0.03,0.55884 -0.093,-0.072 -0.2166,0 -0.03,2.04902 0.327,2.36434 0.1432,4.25581 0.4052,2.99475 0.3896,6.24755 0.7948,9.50034 0.1661,-0.65922 0.402,0.60183 0.3598,-1.30404 l 0.1074,0.15766 0.1098,-0.15766 c 0.1703,0.74519 0.2303,2.00614 0.361,2.93758 0.062,1.0603 -0.238,0.45847 -0.2183,1.31823 0.03,0.54455 0.3199,2.57927 0.2901,1.30404 0.2219,0.3295 -0.032,1.10328 -0.072,1.31822 0,0.77379 0.125,0.96014 0.072,1.96316 0.7022,1.63354 0.3464,6.98124 0.937,8.52021 -0.1594,1.01591 -0.2078,2.54629 -0.287,3.9348 l -0.1082,-0.16766 c 0.037,0.54595 0.042,1.0934 0,1.64075 l 0.1082,-0.16766 c -0.1068,3.62959 0.4896,4.76167 0.5042,6.88377 0.2792,0.20065 0.298,0.26803 0.5062,-0.3295 l 0.1074,0.16475 -0.037,-0.49296 c 0.048,0 0.097,0 0.1442,0 -0.01,1.90866 -0.091,1.91877 -0.073,4.26011 0.1484,0.53455 0.2958,1.0647 0.5058,1.31113 -0.1975,3.68837 -0.015,6.89097 -0.4328,10.15806 0.502,1.83279 -0.037,4.92932 0.3618,7.53729 l -0.129,-0.11757 -0.087,0.44428 c -0.223,0.24073 -0.214,-0.56604 -0.4328,-0.32671 -0.3058,5.10977 0.1797,8.36976 0.3589,11.47059 0.058,0.0698 0.1427,0.0107 0.1452,0.32671 0.092,-0.0183 0.099,-0.42268 0.2157,-0.32671 l 0.035,0.49006 0.1104,-0.16335 c 0,0.54455 0,1.09049 0,1.63644 0.2527,0.28652 0.1767,0.043 0.433,0.3295 -0.01,0.57035 0.016,1.01742 0.071,1.30974 -0.1271,-0.0258 -0.5038,0.47577 -0.649,0 -0.2338,0.3683 -0.25,1.91157 -0.1428,2.94898 0.1246,-0.0226 0.223,0.072 0.288,0.32961 l -0.036,0.3252 0.036,0.32821 c -0.252,0.81097 -0.3426,5.62423 0.36,4.91492 0.087,0.22924 -0.066,1.88578 -0.07,1.96746 0.2319,0.57453 0.2475,2.1451 0.6486,1.96455 -0.2886,1.37131 0.1285,2.16369 -0.1454,3.60379 -0.1365,-0.13896 -0.1302,-0.93575 -0.3598,-0.65482 -0.2016,2.26826 -0.1688,4.87623 0.2894,6.22466 0.037,3.39175 0.512,4.24861 0.5022,6.55566 0,1.35412 -0.3178,2.92458 -0.071,5.24303 0.2046,-0.27222 0.1853,0.45858 0.3609,0.32392 0.019,-1.70813 0.1672,-1.12199 0.2901,-1.96455 0.061,0.36109 0.3703,2.40152 0.07,2.95176 0.1193,0.72371 0.3229,2.23108 0.1443,3.27569 l -0.1323,-0.16766 c 0.096,1.06901 0.2713,2.06063 0.2412,3.28149 l 0.1072,0.16045 c 0.2219,0.67352 -0.1776,2.26687 0.1453,2.62517 0.027,0.21494 -0.092,0.32381 -0.072,0 -0.1552,2.45032 0.077,6.02541 0,9.50174 -0.01,0.43128 -0.1281,0.13036 -0.1448,0.32671 -0.1005,1.21946 0,2.87159 0,3.932 0.2495,-0.26373 0.2787,0.48716 0.5047,0.32811 -0.079,1.3899 -0.2599,2.31415 -0.288,3.932 0.3803,1.97594 0.3531,5.05678 0.5047,6.55276 -0.066,1.22656 -0.5802,0.42698 -0.8662,0.65482 0.1688,2.40592 -0.07,6.65883 0.576,6.88097 -0.05,0.74369 -0.2145,0.98013 -0.3598,1.31253 0.077,3.83603 -0.2755,11.25146 -0.1432,16.37992 -0.1006,0.63762 -0.3755,0.49007 -0.5058,0.98722 -0.2229,0.0989 0.1834,-0.95143 -0.071,-0.98722 -0.277,-0.057 -0.026,0.27083 -0.072,0.98722 -0.2641,0.28953 -0.3838,-0.58034 -0.5046,0 -0.018,1.60775 0.045,2.85301 0.2156,3.60239 -0.062,0.48007 -0.057,1.26965 -0.2886,0.98303 0.092,1.19367 0,1.7811 -0.072,3.27429 0.2984,0.46276 0.413,-0.27513 0.5776,0.65771 0.07,1.18647 -0.3104,0.33531 -0.3609,0.98152 0,0.92285 -0.2052,2.21249 -0.5057,1.64075 0.071,0.44127 0.1921,0.65342 0.289,0.98292 -0.1286,0.61043 -0.4276,0.45718 -0.3598,1.96605 0.09,-0.13326 0.1452,-0.42278 0.1432,-0.98442 0.097,0 0.068,0.57604 0.1462,0.65621 0.022,0.86406 -0.1525,0.84547 -0.2894,0.98163 0.01,0.80957 0.011,1.57766 -0.073,1.96595 l -0.1073,-0.16196 c 0,0.22074 -0.016,0.3697 -0.032,0.51446 -0.1516,0.16045 -0.3204,0.46717 -0.4746,0.14046 l 0.037,0.49286 c -0.3963,2.28556 -0.058,5.42229 -0.29,8.84553 -0.1063,-0.3797 -0.1813,-0.3797 -0.2865,0 -0.1192,0.0527 -0.1192,-2.01904 0,-1.96595 -0.1312,-0.58184 -0.3703,-1.76971 -0.5782,-0.98163 v -0.32811 h -0.073 c -0.1057,0.3783 -0.1801,0.3783 -0.288,0 0.066,-1.37851 -0.027,-1.50888 -0.1432,-2.62226 0.2574,-0.70501 0.4104,-3.39745 0.1432,-4.58822 l 0.037,-0.49006 c -0.1313,0.50866 -0.277,0.49866 -0.4188,0.47717 l -0.4448,0.50575 0.1063,0.16196 c -0.6047,4.06956 -0.2047,11.28144 -0.3615,16.05461 -0.085,-0.0516 -0.2041,0.057 -0.2156,-0.32532 -0.2412,0.56175 -0.136,2.58648 0,3.27709 0.2042,0.26942 0.187,-0.46137 0.361,-0.32671 0.3166,2.01334 -0.1855,2.24827 -0.649,2.29416 -0.098,0.75798 -0.2052,1.46728 -0.3604,1.96455 -0.1849,-0.0387 -0.2521,-0.59754 -0.3614,-0.98443 0,2.14371 0.2634,8.40275 0.7937,7.8639 0,0.43848 0,0.87416 0,1.30973 -0.3041,-1.22805 -0.045,0.46857 -0.2896,1.97025 0.3812,-0.21924 0.8,-1.7854 0.7927,1.30974 0.6084,-0.22064 0.2182,2.05482 0.7948,1.96455 -0.061,0.92714 0.1026,0.84826 0.073,1.64074 l -0.1287,-0.11897 -0.089,0.44278 c -0.8359,-0.31091 -0.162,4.80745 -0.6505,5.57263 -0.03,1.12629 0.03,1.8371 0.074,2.61948 0.3406,0.13036 0.6016,-0.10317 0.8661,-0.32392 0.014,-0.25502 0,-0.64761 0.071,-0.65771 h 0.1448 v -0.65621 c 0.3219,0.64331 0.1636,1.83408 0.3609,2.62076 -0.3448,1.36272 -0.016,4.00648 -0.5765,4.58832 -0.052,1.21795 0.1219,1.4085 0.071,2.62226 0.136,0.26223 0.2652,0.54874 0.4333,0.65482 0,4.39197 0.15,9.13064 0.36,11.14248 -0.3521,0.98303 -0.051,2.98906 -0.2876,4.58542 0.1532,1.18217 0.3256,1.62774 0.3615,3.27848 0.015,0.7251 -0.1203,0.55604 -0.1468,0.98442 -0.1037,1.94166 0.1135,5.0139 -0.069,6.87807 -0.2047,-0.93563 -0.3989,-3.89471 -0.7943,-1.96455 0.031,-2.4761 0.02,-5.14995 0.3594,-6.22465 0.038,-1.86418 -0.1594,-1.93726 -0.3594,-3.27999 0.041,-0.47566 -0.084,-1.69222 0.072,-1.63784 -0.6312,-1.96594 0.1266,-7.14309 -0.65,-7.8625 0.019,2.00185 -0.096,2.11222 0.072,2.94898 0,0.97733 -0.339,0.42128 -0.4333,0.98303 -0.074,1.82269 0.03,1.95165 0,2.94897 l -0.1224,0.22923 -0.093,0.42419 c -0.048,0 -0.096,0 -0.1443,0 0,3.15102 -0.5708,3.74425 -0.5041,7.20908 0.7509,0.75949 0.3781,7.12171 0.1427,9.17653 0.035,1.69223 0.3854,1.97165 0.5786,2.94898 0.3187,0.0355 0.2495,-1.70093 0.5042,-1.96885 0.1802,-0.0462 0.3489,-0.0591 0.3604,0.65772 0.3161,-1.1149 0.389,-1.8285 0.2896,-3.6082 0.2265,-0.15476 0.162,1.01172 0.4322,0.65632 -0.102,4.13114 -0.1629,8.07604 -0.073,11.47059 0.1516,0.19065 0.2339,0.69071 0.3631,0.98302 -0.2724,1.06611 -0.4244,2.66816 -0.5797,4.26011 l -0.1307,-0.16335 c 0.026,0.341 0.024,0.6921 0.024,1.04321 l 0.024,0.92424 0.082,-0.49297 c 0.1928,0.88556 0.3475,1.91437 0.5057,2.95038 -0.2306,1.33552 -0.167,2.22967 -0.071,4.2558 -0.2896,1.8184 -0.1286,8.03166 -0.1442,9.83286 0.5985,-0.43998 0.7052,-1.67804 1.0098,-2.94898 l 0.083,0.49007 0.1324,-0.16486 c 0.026,1.17077 0.2364,6.0484 -0.071,7.53869 l -0.085,-0.49146 -0.1308,0.16185 c -0.01,-0.40258 -0.086,-0.45707 -0.074,-0.94283 l -0.1792,-0.20065 0.1074,0.16056 c 0.072,2.07632 -0.3459,1.91866 -0.361,3.60669 0.026,0.98582 0.249,2.05622 0.4328,1.31253 0.05,0.57464 0.08,1.01312 0,1.30683 0.749,1.62635 0.5714,7.46132 1.2286,9.50464 l 0.1062,0.16336 c -0.1713,-0.63622 0.029,-1.04601 0.036,-1.63784 l -0.026,1.16497 c 0.092,0.0505 0.1079,0.45277 0.1704,0.63622 -0.1094,3.86752 -0.375,8.80394 0.1443,11.47349 l 0.036,0.48716 0.034,0.49007 c -0.7916,1.4086 0.064,4.66851 -0.2864,6.88096 0.1119,0.50726 0.4307,1.94449 0.1437,2.29412 0.1411,0.82967 0.2443,-1.26528 0.5042,-0.98299 0.073,0 0.086,0.26653 0.1458,0.32957 0,1.07614 -0.124,1.63211 -0.073,2.94612 -0.2984,0.8225 -0.1,0.91277 -0.577,1.30969 -0.028,0.79385 0.1322,0.71504 0.072,1.64071 0.098,-0.10317 0.138,-0.4657 0.289,-0.32814 0.2235,1.99607 0.4547,5.20585 0.072,6.5528 0.1287,3.22123 -0.189,5.7131 0,8.84835 -0.2021,0.17482 -0.1412,1.54901 -0.3609,1.63784 0.138,4.91783 -0.5271,8.19781 -0.072,12.7832 0.092,0.45137 0.3416,0.19774 0.4328,0.64911 0.1511,2.79135 -0.3203,8.63772 0.5041,9.1765 0.2328,-2.32565 0.079,-4.95938 0.3615,-7.86393 0.4604,4.45785 0.1688,9.19942 0.3604,14.74917 0.1355,0.25936 0.2641,0.54308 0.4328,0.65485 -0.1713,-1.01738 0.1021,-2.20529 0.2172,-2.94898 -0.062,-2.90599 0.5245,-5.60706 0,-6.88237 0.1573,-0.59897 -0.013,-2.68388 0.1448,-3.27569 l 0.1084,0.15763 0.1083,-0.15763 c 0.1865,1.32403 -0.085,4.75877 0.4308,4.58826 -0.027,0.46283 -0.087,0.55168 0,0.97869 0.1916,-1.88861 0.1686,-5.76899 0.289,-8.84693 -0.1881,0.0975 -0.056,-1.26957 -0.289,-0.97868 0.1817,-1.36559 0.3156,-2.94181 0.5046,-4.26441 0.073,-1.60632 -0.089,-2.32852 0.1454,-2.94897 0.603,0.98012 0.1254,5.35917 0.4333,7.21338 l -0.1089,0.16191 0.037,0.4872 c -0.048,0 -0.097,0 -0.1444,0 -0.037,1.70663 -0.2036,4.77883 0.071,5.90081 0.086,-0.043 0.164,-0.58606 0.2172,0 0.094,-0.005 0.064,-0.5746 0.1437,-0.65055 l 0.1077,0.15763 0.1095,-0.15763 c 0,0.32384 0,0.65055 0,0.98156 0.526,-1.70518 0.7583,0.87982 1.2265,1.30683 0,3.37886 -0.033,6.92251 0.1443,9.50321 -0.1708,0.8268 -0.5308,1.69373 -0.7932,2.94898 -0.3385,-0.90418 -0.4948,0.45424 -0.8677,0.32958 -0.1703,-0.5302 -0.079,-2.26261 -0.359,-2.29413 -0.1869,1.80692 -0.2572,3.20833 -0.4337,5.56837 l -0.1089,-0.16048 c 0.092,0.59753 0.047,1.00734 0,1.30683 v -0.85546 c -0.4615,-0.44708 -0.2662,-3.89328 -0.4678,-5.53255 -0.1566,-0.0545 -0.034,1.1621 -0.073,1.63784 -0.069,-0.55168 -0.1969,-0.8397 -0.4308,-0.65915 0,0.87696 0,1.75104 0,2.62657 -0.013,0.60613 -0.2453,0.20347 -0.2885,0.65198 -0.1588,-0.25506 -0.093,-1.53897 -0.2901,-1.63785 l 0.035,-0.48862 c -0.047,0.0889 -0.096,0.12467 -0.1438,0.15906 l 0.036,0.32956 c -0.059,1.47593 -0.376,1.784 -0.4317,3.27856 -0.3151,-0.22354 -0.4011,0.58893 -0.5057,1.30826 -1.1594,1.03315 -1.3891,4.2945 -2.3798,5.89939 -0.034,0.85689 -0.054,3.44334 -0.1457,2.9504 -0.043,1.40141 0.1463,4.57105 0.2171,6.55567 -0.102,0.73939 -0.3004,1.04174 -0.4318,1.63784 l -0.1098,-0.16622 c 0.1104,0.38833 0.055,0.83396 0.019,1.28104 l 0.018,0.84973 v -0.32384 c 0.058,2.35574 0.351,3.63678 0.7198,4.58395 0.1047,3.6683 0.6448,6.63161 0.3615,9.83135 -0.4229,4.76163 -1.1573,-0.46714 -1.2975,-2.95041 -0.2702,-0.52875 -0.4926,0.78094 -0.5062,0.33101 -0.073,1.31399 0.3729,3.09799 0.2885,5.56694 -0.1135,-0.14186 -0.062,-1.02885 -0.2885,-0.65342 0.051,1.24522 0.048,1.57479 -0.073,2.62227 -0.4567,-1.00019 -0.5958,-2.46465 -0.7203,-3.93627 -0.1604,-1.8972 -0.4427,-4.15264 -0.5047,-5.57124 -0.037,-0.8311 0.033,-1.784 0,-2.62226 -0.1098,-2.75553 -0.263,-5.58271 -0.071,-8.51592 0.011,-0.3783 0.1126,-0.3568 0.214,-0.32671 -0.1338,-2.98909 -0.5932,-4.50514 -0.5749,-8.19351 -0.3713,0.2565 -0.524,-0.4614 -0.8661,-0.32671 -0.017,0.2522 0,0.64625 -0.074,0.65485 0.1292,0.84257 0.3525,1.24235 0.362,2.61941 -0.086,0.59466 -0.3771,0.25793 -0.5052,0.65771 0.14,3.05071 0.042,5.17289 0,7.53865 -0.067,0.3611 -0.1334,0.0975 -0.3604,0.32528 0.059,0.92711 -0.1016,0.84544 -0.071,1.63642 0.1229,0.4399 0.5734,1.07325 0.6485,0.65627 0.3244,3.26566 0.3921,8.93434 0.5057,12.12118 -0.062,0.48146 -0.058,1.26957 -0.2896,0.98442 0.1307,2.46034 -0.5636,2.5191 -1.0104,3.27712 0.059,4.76736 -0.7813,2.32994 -1.0818,4.91639 0.3901,2.22391 0.4104,3.79011 0.5057,6.22609 -0.1047,0.11606 -0.1525,0.3353 -0.2167,1.31687 -0.2062,-0.60183 -0.226,-2.04337 -0.5057,-2.3013 -0.5567,0.71217 0.058,5.72457 -0.3604,7.54009 l -0.1077,-0.16621 c 0.078,0.43274 0.1202,1.12055 0.072,1.6407 l 0.1082,0.16192 c 0.3334,0.59181 -0.044,1.99752 0,3.27856 0.3047,0.69066 0.6814,1.05176 0.7938,2.61796 -0.017,0.25793 -0.06,0.37973 -0.1448,0.32814 0.1688,3.01633 0.3786,6.79927 0,8.52022 -0.2796,-0.26223 -0.3203,-1.60202 -0.5031,-2.29556 -0.4651,1.80549 -0.2281,4.56532 -0.2912,7.86393 -0.084,4.63984 -0.4307,8.32964 -0.576,11.80164 -0.066,1.55329 -0.2219,2.24253 -0.2172,3.27424 0,0.50726 -0.1416,1.47163 -0.1443,1.63641 -0.032,2.36434 0.076,4.34609 0.1443,6.22753 -0.3484,2.55778 -0.7667,4.81178 -1.0807,7.53292 0.1244,-0.0201 0.1766,1.36702 0.5042,1.31543 0,1.11196 0.022,2.28409 -0.1443,2.62227 l -0.1084,-0.16766 0.1027,0.81105 h -0.036 -0.5416 -23.6396 -0.8058 -0.4344 v -142.9221 -3.04928 -8.3411 -0.0129 -32.01169 -4.9794 -17.88729 -8.75386 -11.64974 -7.77502 V 328.01622 327.0232 45.280062 h 17.4527 c -0.014,0.587431 0.034,1.260945 0.2192,1.174969"
               style="fill:#ffffff;fill-opacity:1;fill-rule:nonzero;stroke:none;stroke-width:0.138223" />
            <rect
               style="fill:url(#linearGradient3);fill-opacity:1;stroke-width:1.45161"
               id="rect2"
               width="736.13733"
               height="66.956688"
               x="45.280064"
               y="-1091.5964"
               transform="rotate(90)"
               ry="0" />
          </g>
        </g>
      </g>
    </g>
  </g>
</svg>
